/* XPM */
static char *result[] = {
/* columns rows colors chars-per-pixel */
"30 30 182 2 ",
"   c #5C0703",
".  c #530D03",
"X  c #5E0A00",
"o  c #5C060A",
"O  c #550E0A",
"+  c #5C0E0F",
"@  c #4D1C0E",
"#  c #531202",
"$  c #5A1203",
"%  c #5D120D",
"&  c #53190E",
"*  c #4A0D15",
"=  c #550D13",
"-  c #5E0F15",
";  c #571411",
":  c #5B1314",
">  c #511811",
",  c #5D161E",
"<  c #6D0503",
"1  c #650C04",
"2  c #6D0C01",
"3  c #670708",
"4  c #6C070B",
"5  c #650D0E",
"6  c #6B090B",
"7  c #730401",
"8  c #7B0301",
"9  c #720E00",
"0  c #7A0A00",
"q  c #70020B",
"w  c #720E0E",
"e  c #671700",
"r  c #6C1301",
"t  c #6F1800",
"y  c #62110A",
"u  c #671B0A",
"i  c #751500",
"p  c #791201",
"a  c #731E01",
"s  c #7E1A02",
"d  c #6F0710",
"f  c #630E15",
"g  c #6B0A15",
"h  c #751314",
"j  c #4D200D",
"k  c #682800",
"l  c #732500",
"z  c #7A2100",
"x  c #76330B",
"c  c #702D1A",
"v  c #5B0B21",
"b  c #511D21",
"n  c #5A1D24",
"m  c #591A2F",
"M  c #640F26",
"N  c #4D2724",
"B  c #532225",
"V  c #5B2326",
"C  c #562528",
"Z  c #5B2328",
"A  c #632937",
"S  c #7F581D",
"D  c #7D552C",
"F  c #76592A",
"G  c #7C5E2F",
"H  c #745D3D",
"J  c #623241",
"K  c #793C43",
"L  c #575B5C",
"P  c #6D4744",
"I  c #685455",
"U  c #625A52",
"Y  c #6E5A55",
"T  c #645F5D",
"R  c #6E5E5E",
"E  c #705D54",
"W  c #7C5F57",
"Q  c #70575A",
"!  c #765D58",
"~  c #7B5C5B",
"^  c #5D6E4C",
"/  c #566757",
"(  c #5A6A55",
")  c #5D655D",
"_  c #5D695D",
"`  c #6B6648",
"'  c #6A6456",
"]  c #63635C",
"[  c #6B655C",
"{  c #73655D",
"}  c #7E635A",
"|  c #585766",
" . c #575C6B",
".. c #595E6F",
"X. c #595F72",
"o. c #685662",
"O. c #675D67",
"+. c #685F60",
"@. c #635D6D",
"#. c #715E64",
"$. c #795C65",
"%. c #725C69",
"&. c #655C79",
"*. c #4D6C6C",
"=. c #526665",
"-. c #5B6562",
";. c #5D6865",
":. c #5C646C",
">. c #526B68",
",. c #5D696A",
"<. c #52726F",
"1. c #5D6375",
"2. c #5F6975",
"3. c #5C6478",
"4. c #636267",
"5. c #6A6564",
"6. c #62646B",
"7. c #636A6E",
"8. c #6A686D",
"9. c #706C6B",
"0. c #616274",
"q. c #637776",
"w. c #800009",
"e. c #801D00",
"r. c #862500",
"t. c #892900",
"y. c #943C06",
"u. c #943112",
"i. c #8B3534",
"p. c #893F3E",
"a. c #974702",
"s. c #9C4503",
"d. c #964C03",
"f. c #9C4A01",
"g. c #9B450C",
"h. c #964B0C",
"j. c #9D4B09",
"k. c #8A5208",
"l. c #905102",
"z. c #8B4C16",
"x. c #8B4B1B",
"c. c #974516",
"v. c #9A4613",
"b. c #954815",
"n. c #9E4911",
"m. c #9B431A",
"M. c #904D19",
"N. c #A34501",
"B. c #A94700",
"V. c #A34902",
"C. c #A94800",
"Z. c #A04A0A",
"A. c #A45008",
"S. c #A44313",
"D. c #A24C13",
"F. c #A34218",
"G. c #8C4D2D",
"H. c #964527",
"J. c #845424",
"K. c #8C5527",
"L. c #83522A",
"P. c #8B572F",
"I. c #835A2E",
"U. c #89592B",
"Y. c #925129",
"T. c #874137",
"R. c #8C4B35",
"E. c #87403C",
"W. c #89403F",
"Q. c #835B31",
"!. c #895830",
"~. c #82593B",
"^. c #935234",
"/. c #905239",
"(. c #A64F24",
"). c #873F45",
"_. c #894241",
"`. c #83464E",
"'. c #835843",
"]. c #934E51",
"[. c #83595A",
"{. c #826E6F",
/* pixels */
"6 6 & % + y + f : @ > 6 4 4 b I / T I , ; O 6 6 6 6 6 g 4 6 ",
"2 2 2 2 2 2 2 < 1 $ $ 1 3 - , o.4.E [.f d q 7 6 6 6 6 4 6 6 ",
"w < < 6 3 6 6 8 7 2 2 7 8 q f Q -.L [.; w 7 < < 6 6 2 6 < 5 ",
"z z s a z z s e.l k k l z t c ! ,.;.5.g 8 w.p l l z r 1 i u ",
"m.m.m.m.m.m.m.F.c.x.x.b.(.H.R.5.7.-.4.g w.0 p b.h.S.g.v.v.j.",
"f.f.f.f.f.f.s.N.f.d.d.f.s.a.z.H ^ ) 5.g 8 0 i h.h.s.s.j.j.f.",
"f.f.f.f.f.f.f.B.Z.V.V.B.C.D.Y.' ;.) { 5 8 0 i h.f.V.V.f.V.f.",
"n.n.n.n.n.n.D.n.Z.Z.B.B.N.v.G.! 2.] } 5 7 2 i h.f.C.B.V.f.f.",
"g.v.g.g.g.v.g.g.g.N.N.B.N.v.G.[ 1.] W 5 7 9 a h.s.N.B.f.A.j.",
"d.d.l.d.d.d.d.k.l.d.f.f.f.k.S ` _ U ~ o h e e M.v.S.n.h.l.h.",
"L.L.L.L.L.L.L.F D L.L.J.J.F H T 4.T R * : > j Q.R.G.Y.D Q.K.",
"!.!.!.!.!.!.!.G I.I.P.K.U.G H ' 4.9.{.`.].'.P ~./.^.^.Q.Q.'.",
"#.#.#.#.+.#.#.[ +.%.%.+.[ T O.0.&.,.;.$.$.5.[ ] ! ! ! ] ' { ",
"o.,.3.-._ ) ] ( _ 6.6.;.-./ / ] 5.<.*.6.O.>.>.>.6.6.,.*.:.7.",
"o.0.3.q.P p.p.p._.p.p.W.).).).).E.E.E.E.T.T.T.E.p.T.p.p.i.K ",
"o.1.1.=.N 1 1 = O . . O = = = O O O O O O O O O O O O O   n ",
"0.1.@.6.B 9 p o   X 1 X         X   X     X     X % ; ; ; ; ",
"1.1.@.6.n 7 7 < 2 2 2 r 2 2 2 r 2 2 2 9 2 2 2 2 2 y % % y # ",
"3.3.@.5.Z 7 0 p r.r.r.t.r.r.r.r.r.r.r.r.r.r.r.r.r.r.r.r.r.x ",
"1.0.&.8.n 7 7 s u.S.S.D.S.F.F.F.S.F.F.F.F.F.F.F.F.F.F.F.j.j.",
"6.3.3.7.Z < 2 r m.Z.s.f.s.j.g.f.f.f.f.f.f.f.f.f.f.f.V.V.Z.f.",
"@.1.1.7.C < 2 r b.j.a.f.d.f.f.d.f.d.f.d.f.f.l.f.d.d.f.l.V.h.",
"@.1.3.4.B < < r c.j.d.d.f.f.f.f.f.f.f.f.d.f.f.f.f.d.f.f.f.f.",
"1.1.1.6.V < 2 r m.j.a.f.d.f.d.f.f.d.d.f.f.f.f.f.f.f.d.s.f.f.",
"1.3.0.0.V 7 7 i v.V.s.N.V.f.V.V.f.f.V.s.f.V.s.f.Z.s.Z.f.s.Z.",
"3.3.1.0.A v M a y.Z.j.f.f.f.f.f.f.V.V.N.B.V.V.N.N.N.N.V.j.f.",
"3.1.3.O.J m v z y.j.Z.Z.f.f.f.f.V.V.V.V.V.V.V.V.V.V.Z.N.j.s.",
"3.0.3.0.1.1.3.3.3.1.:.:.:.:.1.1.1.1.3.3.1.1.:.:.6.:.:.:.Y R ",
"1.3.3.3.3.3.3.3.3.1.3.3.3.1.1.1.1.:.1.1.1.1.3.3.3.0.6.1.@.0.",
"| | 3.X.3.3.3.X.X.1.1.X.1.1.3..... .| :. .1.3.1.3.1.X.3.1.1."
};
