/* XPM */
static char *result[] = {
/* columns rows colors chars-per-pixel */
"34 33 106 2 ",
"   c #110217",
".  c #16031F",
"X  c #220907",
"o  c #2D0C09",
"O  c #21052E",
"+  c #211227",
"@  c #270635",
"#  c #31153E",
"$  c gray19",
"%  c #353138",
"&  c #44120D",
"*  c #491314",
"=  c #661C13",
"-  c #711F15",
";  c #54221D",
":  c #431C2D",
">  c #523936",
",  c #5D3C38",
"<  c #762B23",
"1  c #320744",
"2  c #38084C",
"3  c #430A5B",
"4  c #421754",
"5  c #761A50",
"6  c #403247",
"7  c #46334E",
"8  c #4C3549",
"9  c #64205A",
"0  c #480B62",
"q  c #531A6B",
"w  c #530C71",
"e  c #752371",
"r  c #623774",
"t  c #6D3A76",
"y  c #67387B",
"u  c gray25",
"i  c #504257",
"p  c #624946",
"a  c #606060",
"s  c #656067",
"d  c #6B6362",
"f  c gray44",
"g  c #882519",
"h  c #82212B",
"j  c #983529",
"k  c #973050",
"l  c #862A60",
"z  c #9B4C4A",
"x  c #A14E44",
"c  c #B85548",
"v  c #A64E59",
"b  c #A65B52",
"n  c #B2515B",
"m  c #AC4F60",
"M  c #B65E69",
"N  c #C76458",
"B  c #C57B72",
"V  c #CB7C79",
"C  c #631C81",
"Z  c #733A8A",
"A  c #7E3D8C",
"S  c #783A92",
"D  c #724784",
"F  c #894181",
"G  c #94508A",
"H  c #82499A",
"J  c #9267A3",
"K  c #9D6AA5",
"L  c #9768AB",
"P  c #A277B3",
"I  c gray56",
"U  c #959097",
"Y  c #9B9291",
"T  c #9F9F9F",
"R  c #BD9C97",
"E  c #B7999D",
"W  c #A092A6",
"Q  c #A693AD",
"!  c #B194BC",
"~  c #BC97BE",
"^  c #B0A2B6",
"/  c gray75",
"(  c #D58B82",
")  c #D3A29B",
"_  c #C29BAC",
"`  c #C89CB3",
"'  c #C1A9A5",
"]  c #D9A3A3",
"[  c #D2ABBC",
"{  c #B695C4",
"}  c #C1A4CC",
"|  c #C5C0C6",
" . c #CBC2C1",
".. c gray81",
"X. c #D0C2D5",
"o. c #DBC5D7",
"O. c #D5C2DD",
"+. c #E1C8C5",
"@. c #ECCBC7",
"#. c #E7C9CC",
"$. c #F1D8D5",
"%. c #E0D2E5",
"&. c #EFEFEE",
"*. c #F5F0F6",
"=. c #FAF2F0",
"-. c None",
/* pixels */
"-.-.-.-.-.-.-.  1 1     1 1   -.-.-.-.-.-.  1 1   -.-.  1 1   -.-.-.",
"-.-.$ $ -.-.-.  1 4 6 6 4 1   -.$ $ -.-.  O 2 1   -.$ 7 q 3 . -.-.-.",
"-.$ I I $ -.-.-.  6 U U 6   -.$ I I $   1 2 O   -.$ I Q Z 3 . -.-.-.",
"-.% W Q 7 + % u u a T I $ -.$ f ../ u   1 1   -.$ s ^ ! y 1   -.-.-.",
"-.+ r Z q r W / / T a $ -.$ I ..&./ u -.    -.$ I ^ J y #   -.-.-.-.",
"-.  1 0 w S { %.*.| i . . i | *.%.Q 7   -.-.$ f ..O.H 3 . -.-.-.-.-.",
"-.-.  @ 0 C S P %.X.D 3 3 D X.%.P Z q 1   $ I ..&.O.H 3 . -.-.-.-.-.",
"-.-.-.  1 0 w A ` [ K H H P %.%.P S C q 7 f ..*.%.{ S 3 . -.    -.-.",
"-.-.-.-.  @ 0 e m V [ O.O.%.*.*.%.{ S Z Q ..&.%.P S C 3 .   1 1   -.",
"-.-.$ $ -.. 3 e m ( $.=.$.$.=.&...^ J P %.=.$.` A w 0 1     1 1   -.",
"-.$ I I $ . 3 A ` $.=.$.( ( $...f s ^ %.*.$.( m e 0 @   -.-.    -.-.",
"-.$ I U 6 # y P %.=.$.] n n ] R , > Y  .+.] n k F y #   -.-.-.-.-.-.",
"-.-.$ 6 4 y ! %.*.$.( n l l n c j < > p b n l F ~ ! y 1   -.-.-.-.-.",
"$ u u i D P %.&...' B n l 5 h g g - & ; x M G P %.%.P D i u u $ -.-.",
"I / / | X.%.*...f d ' ] n h * o o & - x ) #.o.%.*.*.%.X.| / / I $ -.",
"I | X.O.O.O.O.^ s f ..#.M h * X -.o g N @.*.%.O.O.O.O.X.| / / I $ -.",
"$ i D H H H H J ^ ..&.o.G 5 h = X o g N @.%.P H H H H D i u u $ -.-.",
"-.  1 3 3 0 w S { O.O.! y 9 v x ; & - z _ { S C S H H r + -.-.-.-.-.",
"-.-.  . . @ 0 C S H H y # 8 E ) x - & : t S C S { O.O.W % -.-.-.-.-.",
"-.-.$ % + @ 0 C S H H y # i | +.b < > 8 9 e A L } O.O.^ s $ -.-.  -.",
"-.$ I W r 0 w S { O.O.! y D X. .p > Y E v m ` } L H H J ^ I $   1 -.",
"-.$ I ^ J H H P %.=.$.[ K L } ^ s s ^ [ V ( $.X.D 3 3 r W I $   1 -.",
"-.-.$ s ^ O.O.%.*.$.( V [ } L J ^ ^ J K [ $.=.| i . . + % $ -.-.  -.",
"-.-.  i | *.%.O.O.[ V V [ } L P %.O.H S { %.*...f $ -.-.    -.-.-.-.",
"-.  1 D X.%.P H H K [ [ K L } %.*.O.H C S P %.&...I $   1 1   -.-.-.",
"-.+ r L } ! y 3 3 y ! ! y y ! %.*.O.H w 0 y ! O.O.^ s 6 4 1   -.-.-.",
"-.% W } L y # . . # y y # # y P %.O.H 0 @ # y H H J ^ U 6   -.-.-.-.",
"$ s ^ ! y 1   -.  O 2 1     1 D X.X.D 1     1 3 3 y ! ^ s $ -.-.-.-.",
"I ^ J y #   -.  1 2 O   -.-.  i | | i   -.-.  . . # y J ^ I $ -.-.-.",
"I W r 1   -.-.  1 1   -.-.-.-.u / / u -.    -.-.-.  1 y ! W % -.-.-.",
"$ % +   -.-.-.-.    -.-.-.-.-.u / / u   1 1   -.-.-.  # y r + -.-.-.",
"-.-.-.-.-.-.-.-.-.-.-.-.-.-.-.$ I I $   1 1   -.-.-.-.  1 1   -.-.-.",
"-.-.-.-.-.-.-.-.-.-.-.-.-.-.-.-.$ $ -.-.    -.-.-.-.-.-.    -.-.-.-."
};
