/* XPM */
static char *result[] = {
/* columns rows colors chars-per-pixel */
"62 61 97 2 ",
"   c #110217",
".  c #16031F",
"X  c #211227",
"o  c #270635",
"O  c #31153E",
"+  c gray19",
"@  c #353138",
"#  c #4F150F",
"$  c #54221D",
"%  c #5D3C38",
"&  c #320744",
"*  c #430A5B",
"=  c #421754",
"-  c #403247",
";  c #46334E",
":  c #480B62",
">  c #531A6B",
",  c #530C71",
"<  c #590D79",
"1  c #701663",
"2  c #752371",
"3  c #623774",
"4  c #67387B",
"5  c gray25",
"6  c #504257",
"7  c #624946",
"8  c #606060",
"9  c #656067",
"0  c #6B6362",
"q  c gray44",
"w  c #93281B",
"e  c #AA2E1F",
"r  c #983529",
"t  c #9E2837",
"y  c #BA3E2F",
"u  c #A8373F",
"i  c #862A60",
"p  c #A14E44",
"a  c #B85548",
"s  c #A65B52",
"d  c #BD5550",
"f  c #B2515B",
"g  c #8F437C",
"h  c #AC4F60",
"j  c #B65E69",
"k  c #C3584A",
"l  c #C76458",
"z  c #C57B72",
"x  c #CB7C79",
"c  c #D17E74",
"v  c #631C81",
"b  c #733A8A",
"n  c #7E3D8C",
"m  c #783A92",
"M  c #724784",
"N  c #94508A",
"B  c #82499A",
"V  c #9267A3",
"C  c #9D6AA5",
"Z  c #9768AB",
"A  c #A277B3",
"S  c gray56",
"D  c #959097",
"F  c #9F9F9F",
"G  c #BD9C97",
"H  c #A092A6",
"J  c #A693AD",
"K  c #B194BC",
"L  c #B0A2B6",
"P  c gray75",
"I  c #D58B82",
"U  c #D3A29B",
"Y  c #DFA59D",
"T  c #CD9EAE",
"R  c #C89CB3",
"E  c #C1A9A5",
"W  c #D9A3A3",
"Q  c #D2ABBC",
"!  c #E3B2AB",
"~  c #B695C4",
"^  c #C1A4CC",
"/  c #C5C0C6",
"(  c #CBC2C1",
")  c gray81",
"_  c #D0C2D5",
"`  c #DBC5D7",
"'  c #D5C2DD",
"]  c #E1C8C5",
"[  c #ECCBC7",
"{  c #E7C9CC",
"}  c #F1D8D5",
"|  c #E0D2E5",
" . c #EFEFEE",
".. c #F5F0F6",
"X. c #FAF2F0",
"o. c #FFFFFE",
"O. c None",
/* pixels */
"O.O.O.O.O.O.O.O.O.O.O.O.O.O.O.O.O.O.O.O.O.O.O.O.O.O.O.O.O.O.O.O.O.O.O.O.O.O.O.O.O.+ S S + O.O.O.O.O.O.O.O.O.O.O.O.+ S S + O.",
"O.O.O.O.+ + O.O.O.O.O.O.O.O.O.O.O.O.O.O.+ + O.O.O.O.O.O.O.O.O.O.O.O.O.O.O.O.O.O.O.5 P P 5 O.O.O.O.O.O.O.O.O.O.O.O.5 P P 5 O.",
"O.O.O.+ S S + O.O.O.O.O.O.O.O.O.O.O.O.+ S S + O.O.O.O.O.O.O.O.O.O.O.O.O.O.O.O.O.O.5 P P 5 O.O.O.O.O.O.O.O.O.O.O.O.5 P P 5 O.",
"O.O.O.+ S F 8 + O.O.O.O.+ + O.O.O.O.+ 8 F S + O.O.O.  . . . .   O.O.+ 5 5 @ X   O.+ S F 8 + O.O.O.O.O.O.O.O.O.O.+ 8 F S + O.",
"O.O.O.O.+ 8 F S + O.O.+ S S + O.O.+ S F 8 + O.O.O.  & * * * * &   + S P P H 3 &   O.+ 8 F S + O.O.O.O.O.O.O.O.+ S F 8 + O.O.",
"O.O.O.O.O.+ S D -   O.+ S F 8 + O.+ S S + O.+ 5 5 6 M m v < < : o 6 / o.o.' B : o   O.5 P P 5 O.+ + O.O.O.O.  - D S + O.O.O.",
"O.O.O.O.O.O.+ - = &   O.+ 8 F S + O.+ + O.+ S P P / _ ~ m < < , : M _ o.o.' B , : &   5 P P 5 + S S + O.O.  & = - + O.O.O.O.",
"O.O.O.O.O.O.O.  & = - + O.@ H H @ O.O.O.+ 9 L | ..o.o.| A b > > b V L P P L V m v : o 6 / P 5 5 P P 5 O.+ 6 M 3 X O.O.O.O.O.",
"O.O.O.O.O.O.O.O.  - D S + X 3 3 X O.O.+ S L V A | o.o...| J ; ; J L 9 5 5 9 L ~ m , : M _ P 5 5 P P 5 + S / _ H @ O.O.O.O.O.",
"O.O.O.O.O.O.O.O.O.+ S F 8 - = &   O.O.5 P | A Z ^ | .. .) F 8 9 L J ; . . - D L V B B A | ) q 8 F F 8 8 F P P S + O.O.O.O.O.",
"O.O.O.O.O.O.O.O.O.O.+ 8 F D -   O.O.O.5 P ..| ^ Z A | ) q 8 F L V b > * * = - 9 L ' ' | .. .) F 8 8 F F 8 5 5 + O.O.O.O.O.O.",
"O.O.O.O.O.O.O.O.+ 5 5 8 F S + O.O.O.+ q ) o.o.| A A | ) q q ) | A B B m v > ; q ) o.o.o.o.o.o.) q 8 F F 8 + O.O.O.O.O.O.O.O.",
"O.O.O.O.O.O.O.+ S P P F 8 + O.O.O.+ S )  .o.o...| | .. .) )  ...| ' ' ~ m b J )  .o.o.o.o.o.o. .) F 8 8 F S + O.O.O.O.O.O.O.",
"O.O.O.O.O.O.O.+ S P P S + O.  . . ; J | .. .) P P )  .o.o.o.o...| | ..| A Z ^ | ..o.o. .) / _ | ..P 5 + S S + O.O.O.  X @ + ",
"O.O.O.O.O.O.O.O.+ 5 5 + O.  & * * > b A | ) q 5 5 q ) o.o.o.o.| A A | ..| ^ Z A | o.o.) q 6 M A | P 5 O.+ + O.O.O.  & 3 H S ",
"O.O.O.O.O.O.O.O.O.O.O.O.+ ; > < < < < B ' ) q 5 5 q ) o.o...| ^ Z A |  .) L V A |  .) F 8 6 M Z ^ L 9 + O.O.O.O.O.X 3 V L S ",
"O.O.O.O.O.O.O.O.O.O.O.+ S J b < < < < B '  .) P P )  .o.o.| A Z ^ | ..) q 9 L | ..) q 8 F / _ ^ Z V L S + O.O.O.O.@ H L 9 + ",
"O.  O.O.O.O.O.O.O.O.+ q ) _ M > b m v B ' o.o.o.o.X.} } X.| A C Q } X.) q q ) ..| L 9 q ) o.o.' B B ' ) q 5 5 + O.+ S S + O.",
"O.&   O.O.O.O.O.O.+ S )  ./ 6 ; J ~ m B ' o.o.o.o.} I I } ..| Q x I }  .) )  .| A V L )  .o.o.' B B '  .) P P S + O.+ + O.O.",
"O.= - @ X   O.O.  6 /  .) F 8 q ) | A C Q [ [ } X.} I I } o.o.[ l d T | ..o.o.| A Z ^ | ....| ^ Z V L )  ...| L 9 + O.O.O.O.",
"O.- D H 3 &     & M _ ) q 8 F )  ...| Q x l l I } X.} } X.o.o.[ l u g A | o.o...| ^ Z A | | A Z ^ L 9 q ) | A V L S + O.O.O.",
"O.+ S L V 3 X X 3 A | P 5 5 P o.o.o.o.} I k y k Y } X.X.} } X.[ l u g A | X.} [ [ R n B ' | A V L F 8 9 L ~ m B ' P 5 O.O.O.",
"O.O.+ 9 L H @ @ H | ..P 5 5 P o.o.o.o.X.} Y k y k I } } I I } [ l d T | ..} I l l h 2 B ' ..| L 9 8 F L V m v B ' P 5 O.O.O.",
"O.O.+ 8 F S + + S )  .) q 8 F )  ...| | ..[ l y k c ! Y k k Y Y k k Y [ [ ! c k y u g A | o.o.) q 8 F L V B B V L S + O.O.O.",
"O.+ S F 8 + O.O.+ q )  .) F 8 q ) | A A | [ l k Y ! c k y y k k y y k l l c ! Y k d T | ..o.o. .) F 8 9 L ' ' L 9 + O.O.O.O.",
"O.+ S F 8 + O.O.+ 9 L | ..) q 9 L ~ m B ' } I c ! ! c k y y k l l k y y k c ! W f j { o.o.o.o.o.o.) q 8 F )  .) q + O.O.O.O.",
"O.O.+ 8 F S + + S L V A |  .) L V m v B ' X.} ! c c ! Y k k Y [ [ Y k k Y ! c f i N ` o.o.o.o.o.o. .) F 8 q )  .) S + O.O.O.",
"O.O.O.+ S S + @ H ~ m b J / _ ^ Z m v B ' o.o.[ l k Y ! c x Q _ / E z c ! ! c j N A | o.o. .) )  . .) F 8 9 L ' ' H @ O.O.O.",
"O.O.O.O.+ + O.X 3 m v > ; 6 M Z ^ ~ m B ' o.o.[ l y k c ! Q C M 6 0 E ! c c ! { ` | ..o.o.) q q ) ) q 8 F L V B B 3 X O.O.O.",
"O.O.O.O.O.O.O.  & * * = - 6 M Z ^ ^ Z C Q [ [ Y k y k z E L V 4 O 6 / ] s p U } X. .) / _ L 9 q ) ) q 8 F J b < < * . O.O.O.",
"O.O.O.O.O.O.O.O.  . . - D / _ ^ Z Z ^ Q x l l k y k Y E 0 9 L K 4 M _ ( 7 $ p I } ) q 6 M V L )  . .) F 8 ; > < < * . O.O.O.",
"O.O.O.O.O.O.O.O.O.O.+ q ) o.o.| A A | } I l l k y k Y E 0 0 E R n n R G % # w l [ / 6 o : m ~ | ..o.o.) q ; > , : &   O.O.O.",
"O.O.O.O.O.O.O.O.O.+ S )  .o.o...| | ..X.} [ [ Y k y k z E E z h 2 2 h a r w e l [ _ M : , v m A | o.o. .) J b : o   O.O.O.O.",
"O.O.O.O.O.O.O.O.O.5 P o.o. .) )  .o.o.o.o.o.o.[ l y k c ! Y k t 1 1 t y k l l c ! Q C B B b > M _ o.o...| ~ m * . O.O.O.O.O.",
"O.O.O.O.O.O.O.O.O.5 P o.o.) q q ) o.o.o.o.o.o.[ l k Y ! c k y t 1 1 t k Y [ [ ! c x Q ' ' J ; 6 / o.o.| A m v * . O.O.O.O.O.",
"O.O.O.O.O.O.O.O.  6 /  .) F 8 q ) ..| | ..X.} ! c I } } I k y u g g u d T | ..} I I } o.o.) q 9 L ' ' ~ m < < * . O.O.O.O.O.",
"O.O.O.O.O.O.O.  & M _ ) q 8 F )  .| A A | } I c ! } X.X.} Y k d T T d u g A | X.} } X.o.o. .) L V B B m v < < * . O.O.O.O.O.",
"O.O.O.O.O.O.O.. * m ~ L 9 9 L ' ' ~ m B ' } I I } o.o...| T d k Y ! c j N A | o.o...| | ..o.o.| A b > : , , : = - + O.O.O.O.",
"O.O.O.O.O.O.O.. * v m V L L V B B m v B ' X.} } X.o.o.| A g u y k c ! { ` | ..o.o.| A A | o.o...| J ; o : : o - D S + O.O.O.",
"O.O.O.O.+ + O.  & : , m ~ ~ m < < v m A | o.o.o.o...| ~ m 2 h k y l [ o.o.o.o.o.o.| A Z ^ | ..o.o.P 5 X 3 M 6 8 F S + O.O.O.",
"O.O.O.+ S S + O.  o : v m m v < < m ~ | ..o.o.o.o.| A m v n R Y k l [ o.o.o.o.o.o...| ^ Z A | o.o.P 5 @ H _ / F 8 + O.O.O.O.",
"O.O.O.+ S F 8 + O.  & * * * * : , B '  .) )  ...| ~ m v m A | } I I }  .) )  .o.o. .) J b B '  .) F 8 9 L _ / S + O.O.O.O.O.",
"O.O.O.O.+ 8 F S + O.  . . . . o : B ' ) q q ) | A m v m ~ | ..X.} } X.) q q ) o.o.) q ; > B ' ) q 8 F L V M 6 + O.O.O.O.O.O.",
"O.O.O.O.O.+ S S + O.O.O.O.O.O.X 3 A | P 5 5 P | A B B V L )  .o.o.o.o.) q 8 F P P D - o : B ' ) q 9 L ~ m * . O.O.O.O.O.O.O.",
"O.O.O.O.O.O.+ + O.O.O.O.O.O.O.@ H | ..P 5 5 P ..| ' ' L 9 q ) o.o.o.o. .) F 8 5 5 - = : , B '  .) L V m v * . O.O.O.O.O.O.O.",
"O.O.O.O.O.O.O.O.O.O.O.O.+ @ X - D )  .) q 8 F )  . .) D - ; J | ..o.o.o.o.) q @ X o : v m A |  .) J b , : &   O.O.O.O.O.O.O.",
"O.O.O.O.O.O.O.O.O.O.O.+ S H 3 = - q )  .) F 8 q ) ) q - = > b A | o.o.o.o. .) H 3 : , m ~ | ..) q ; > : o   O.O.O.O.O.O.O.O.",
"O.O.O.O.O.O.O.O.O.O.  - D L V 3 X 5 P o.o.) q q ) ) q ; > < < b J P P / _ ' ' ~ m , : M _  .) F 8 - = = - 5 5 + O.O.O.O.O.O.",
"O.O.O.O.O.O.O.O.O.  & = - 9 L H @ 5 P o.o. .) )  . .) J b < < > ; 5 5 6 M B B m v : o 6 / ) q 8 F D - - D P P S + O.O.O.O.O.",
"O.O.O.O.O.O.O.O.+ - = &   + S S + + S P P / _ ' ' ' ' ~ m , : &   O.O.  & * * * * &   + S S + 5 P P 5 + S / _ H @ O.O.O.O.O.",
"O.O.O.O.O.O.O.+ S D -   O.O.+ + O.O.+ 5 5 6 M B B B B m v : o   O.O.O.O.  . . . .   O.O.+ + O.5 P P 5 O.+ 6 M 3 X O.O.O.O.O.",
"O.O.O.O.O.O.+ 8 F S + O.O.O.O.O.O.O.+ + O.  & * * * * * * &   O.O.O.O.O.+ + O.O.O.O.+ + O.O.O.+ S S + O.O.X 3 4 O   O.O.O.O.",
"O.O.O.O.O.+ S F 8 + O.O.O.O.O.O.O.+ S S + O.  . . . . . .   O.O.O.O.O.+ S S + O.O.+ S S + O.O.O.+ + O.O.O.@ H K 4 &   O.O.O.",
"O.O.O.O.  - D S + O.O.O.O.O.O.O.O.+ S S + O.+ + O.O.O.O.O.O.O.O.O.O.O.+ S D - X @ 9 L H @ O.O.O.O.O.O.O.O.+ S L V 4 O   O.O.",
"O.O.O.  & = - + O.O.O.O.O.O.O.O.O.O.+ + O.+ S S + O.O.O.O.O.O.O.O.O.O.O.+ - = 3 H L V 3 X O.O.O.O.O.O.O.O.O.+ 9 L K 4 &   O.",
"O.O.O.X 3 3 X O.O.O.O.O.O.O.O.O.O.O.O.O.O.+ S S + O.O.O.O.O.O.O.O.O.O.O.O.X 3 V L L V 3 X O.O.O.O.O.O.O.O.O.O.+ S L V 3 X O.",
"O.O.O.@ H H @ O.O.O.O.O.O.O.O.O.O.O.O.O.O.O.+ + O.O.O.O.O.O.O.O.O.O.O.O.O.@ H L 9 9 L H @ O.O.O.O.O.O.O.O.O.O.O.+ 9 L H @ O.",
"O.O.O.+ S S + O.O.O.O.O.O.O.O.O.O.O.O.O.O.O.O.O.O.O.O.O.O.O.O.O.O.O.O.O.O.+ S S + + S S + O.O.O.O.O.O.O.O.O.O.O.O.+ S S + O.",
"O.O.O.O.+ + O.O.O.O.O.O.O.O.O.O.O.O.O.O.O.O.O.O.O.O.O.O.O.O.O.O.O.O.O.O.O.O.+ + O.O.+ + O.O.O.O.O.O.O.O.O.O.O.O.O.O.+ + O.O.",
"O.O.O.O.O.O.O.O.O.O.O.O.O.O.O.O.O.O.O.O.O.O.O.O.O.O.O.O.O.O.O.O.O.O.O.O.O.O.O.O.O.O.O.O.O.O.O.O.O.O.O.O.O.O.O.O.O.O.O.O.O.O.",
"O.O.O.O.O.O.O.O.O.O.O.O.O.O.O.O.O.O.O.O.O.O.O.O.O.O.O.O.O.O.O.O.O.O.O.O.O.O.O.O.O.O.O.O.O.O.O.O.O.O.O.O.O.O.O.O.O.O.O.O.O.O."
};
