/* XPM */
static char *result[] = {
/* columns rows colors chars-per-pixel */
"27 26 85 1 ",
"  c #110217",
". c #21052E",
"X c #211227",
"o c #270635",
"O c #31153E",
"+ c gray19",
"@ c #353138",
"# c #4F150F",
"$ c #54221D",
"% c #5D3C38",
"& c #320744",
"* c #38084C",
"= c #46334E",
"- c #480B62",
"; c #531A6B",
": c #530C71",
"> c #752371",
", c #623774",
"< c #67387B",
"1 c gray25",
"2 c #504257",
"3 c #624946",
"4 c #606060",
"5 c #656067",
"6 c #6B6362",
"7 c gray44",
"8 c #93281B",
"9 c #AA2E1F",
"0 c #983529",
"q c #A8373F",
"w c #862A60",
"e c #A14E44",
"r c #B85548",
"t c #A65B52",
"y c #BD5550",
"u c #B2515B",
"i c #8F437C",
"p c #AC4F60",
"a c #B65E69",
"s c #C57B72",
"d c #CB7C79",
"f c #D17E74",
"g c #631C81",
"h c #733A8A",
"j c #7E3D8C",
"k c #783A92",
"l c #724784",
"z c #94508A",
"x c #82499A",
"c c #9267A3",
"v c #9D6AA5",
"b c #9768AB",
"n c #A277B3",
"m c gray56",
"M c #9F9F9F",
"N c #BD9C97",
"B c #A092A6",
"V c #A693AD",
"C c #B194BC",
"Z c #B0A2B6",
"A c gray75",
"S c #D58B82",
"D c #D3A29B",
"F c #CD9EAE",
"G c #C89CB3",
"H c #C1A9A5",
"J c #D9A3A3",
"K c #D2ABBC",
"L c #E3B2AB",
"P c #B695C4",
"I c #C1A4CC",
"U c #C5C0C6",
"Y c #CBC2C1",
"T c gray81",
"R c #D0C2D5",
"E c #DBC5D7",
"W c #D5C2DD",
"Q c #E1C8C5",
"! c #E7C9CC",
"~ c #F1D8D5",
"^ c #E0D2E5",
"/ c #EFEFEE",
"( c #F5F0F6",
") c #FAF2F0",
"_ c None",
/* pixels */
"__________++__________++___",
"_________+mm+________+mm+__",
"__++_____1AA1___++__+4Mm+__",
"_+mm+____1AA1__+mm++mM4+___",
"_@BZ511+_@BZ5+_1AT75ZB@____",
"_X,cZAAm+X,cZm+1A/TZc,X____",
"_ &<CWWZ52lbIV=2U(^C<& ____",
"__ O<xxcZURIbh;lR^n<O _____",
"___ &-:xW)~Kvj>zEWx;=11+___",
"____ o-xW~SdKGpa!WxhVAAm+__",
"__+112lbIKdfLDeeDGjkPRUm+__",
"_+mAAURIbvKLfe$$ep>gkl2+___",
"_+mAAURIbcZNr8#$ep>:-& ____",
"__+112lbIZ5%098eDGj-o _____",
"_____X,n^Y3$eyquJKv<O _____",
"_____@B^(QteDFiwudKC<& ____",
"____+5ZRUHsdKIbzadKIb<O ___",
"___+mZcl26HKvbIE!KvbIC<& __",
"__+5ZC<*.2URl<C^(Rl,BZc,X__",
"_+mZc<O.*lRU2O<n^U2X@5ZB@__",
"_+mB,& X,cZm+ &<CB@__+mm+__",
"__+@X _@BZ5+__ O<,X___++___",
"_______+mm+____ && ________",
"________++______  _________",
"___________________________",
"___________________________"
};
