/* XPM */
static char *result[] = {
/* columns rows colors chars-per-pixel */
"68 65 126 2 ",
"   c #110217",
".  c #16031F",
"X  c #191919",
"o  c #21052E",
"O  c #3E0F20",
"+  c #211227",
"@  c #270635",
"#  c #291B30",
"$  c #31153E",
"%  c gray19",
"&  c #353138",
"*  c #4F150F",
"=  c #54221D",
"-  c #431C2D",
";  c #573A3E",
":  c #5D3C38",
">  c #320744",
",  c #38084C",
"<  c #5F144C",
"1  c #430A5B",
"2  c #421754",
"3  c #403247",
"4  c #46334E",
"5  c #4C3549",
"6  c #4B205D",
"7  c #64205A",
"8  c #480B62",
"9  c #531A6B",
"0  c #530C71",
"q  c #590D79",
"w  c #752371",
"e  c #623774",
"r  c #6D3A76",
"t  c #67387B",
"y  c gray25",
"u  c #494949",
"i  c #504257",
"p  c #624946",
"a  c #6B5D71",
"s  c #606060",
"d  c #656067",
"f  c gray44",
"g  c gray48",
"h  c #93281B",
"j  c #AA2E1F",
"k  c #8D2620",
"l  c #983529",
"z  c #862E39",
"x  c #982730",
"c  c #AF2F26",
"v  c #B53121",
"b  c #BA3E2F",
"n  c #A42A31",
"m  c #A8373F",
"M  c #811D52",
"N  c #862A60",
"B  c #9B4C4A",
"V  c #A14E44",
"C  c #B85548",
"Z  c #A64E59",
"A  c #A65B52",
"S  c #BD5550",
"D  c #B2515B",
"F  c #84407A",
"G  c #8F437C",
"H  c #AC4F60",
"J  c #B65E69",
"K  c #C3584A",
"L  c #C76458",
"P  c #CB7C79",
"I  c #D17E74",
"U  c #631C81",
"Y  c #733A8A",
"T  c #7E3D8C",
"R  c #783A92",
"E  c #724784",
"W  c #7B508C",
"Q  c #94508A",
"!  c #82499A",
"~  c #807B81",
"^  c #9267A3",
"/  c #9D6AA5",
"(  c #9768AB",
")  c #A277B3",
"_  c gray54",
"`  c gray56",
"'  c #959097",
"]  c #9F9F9F",
"[  c #BD9C97",
"{  c #B7999D",
"}  c #A092A6",
"|  c #A693AD",
" . c #AB95A8",
".. c #B194BC",
"X. c gray66",
"o. c #B0A2B6",
"O. c #B9ABBE",
"+. c gray75",
"@. c #D58B82",
"#. c #D3A29B",
"$. c #DFA59D",
"%. c #C29BAC",
"&. c #CD9EAE",
"*. c #C89CB3",
"=. c #D9A3A3",
"-. c #D2ABBC",
";. c #E3B2AB",
":. c #B695C4",
">. c #C1A4CC",
",. c #C5C0C6",
"<. c #CBC2C1",
"1. c gray81",
"2. c #D0C2D5",
"3. c #DBC5D7",
"4. c #D5C2DD",
"5. c #D8D8D7",
"6. c #E1C8C5",
"7. c #ECCBC7",
"8. c #E7C9CC",
"9. c #F1D8D5",
"0. c #E0D2E5",
"q. c #EFEFEE",
"w. c #F5F0F6",
"e. c #FAF2F0",
"r. c #FFFFFE",
"t. c None",
/* pixels */
"t.t.% ` ` % t.t.t.t.t.t.t.t.t.t.t.t.t.t.t.t.t.t.t.t.t.t.t.t.t.t.t.t.t.t.t.t.t.t.t.t.t.t.t.t.t.t.t.t.t.t.t.t.t.t.t.t.t.t.t.t.t.t.t.t.t.t.",
"t.t.& } o.d % t.t.t.t.t.t.% % t.t.t.t.t.t.t.t.t.t.t.t.t.t.t.t.t.t.t.t.t.t.t.t.t.t.  . . + & y y % t.t.t.t.t.t.t.t.t.t.t.t.t.t.% % t.t.t.",
"t.t.+ e ^ o.` % t.t.t.t.% ` ` % t.t.t.t.t.t.t.t.t.t.t.t.t.t.t.t.t.t.t.t.t.t.t.t.  > 1 1 e } +.+.` % t.t.t.t.t.t.t.t.t.t.t.t.% ` ` % t.t.",
"t.t.  > t ..o.d % t.t.t.% ` ' 3   t.t.t.t.t.t.t.t.t.t.% & + . . . .   t.t.  + & i E ! ! ) 0.w.0.| 4   t.t.t.t.t.t.t.t.% & + 3 ' ` t.t.t.",
"t.t.t.  $ t ^ o.` % t.t.t.% 3 2 >   t.t.t.t.t.t.t.t.% ` } e 1 1 1 1 >     > e } ,.2.4.4.0.w.0.) Y 9 >   t.t.t.t.t.t.% ` } e 2 3 % t.t.t.",
"t.t.t.t.  > t ..| 4   t.t.t.  > >   t.% y y % t.t.% f 1.0.) R U 0 8 , o $ t ) 0.r.r.q.1.+.+.o.^ R U 8 @   t.t.t.t.% d o...t >   t.t.t.t.",
"t.t.t.t.t.  $ t Y 9 >   t.t.t.    t.% ` +.+.` % % ` 1.q.w.0.:.R 8 @ o , t ..0.w.r.r.1.f y y d o.:.R 0 8 >   t.t.% ` o.^ t $   t.t.t.t.t.",
"t.t.t.t.t.t.  > 8 0 8 @   t.t.t.t.% d o.0.w.1.f f 1.e.9.9.e.0.) E i 3 2 E 2.r.r.q.1.] s & + 3 ' o.^ R U 8 @   t.% ` | Y 1 . t.t.t.t.t.t.",
"t.t.t.t.t.t.t.  @ 8 0 8 >   t.t.% ` o.^ ) 0.q.1.1.q.9.@.@.9.w.0.2.,.' 3 i ,.r.r.1.f s ] } e 2 3 d o.:.R 0 8 >   t.% 4 9 1 . t.t.t.t.t.t.",
"t.t.t.t.t.t.t.t.. 1 0 8 >   t.% f 1.4.! R :.3.8.8.3.-.P @.9.r.r.r.r.1.f f 1.r.r.1.f f 1.0.) t $ 3 ' o.^ R U 1 . t.t.  > >   t.t.t.t.t.t.",
"t.t.t.t.t.t.t.t.. 1 8 @   t.% ` 1.q.4.! U R Q J J Q / -.9.e.r.r.r.r.q.1.1.q.r.r.q.1.1.q.w.0...t 2 3 d o.:.R 1 . t.t.t.    t.t.t.t.t.t.t.",
"t.t.t.t.t.t.t.t.  > >   t.t.y +.w.0.>.( ! ! Q J J Q ( >.0.w.r.r.r.r.r.r.r.r.r.r.w.0.4.4.0.w.0.) e + y +.4.! 1 . t.% y y % t.t.t.t.t.t.t.",
"t.t.t.t.t.t.t.t.t.    t.t.t.y +.0.) ( >.4.4.3.8.8.3.>.( ) 0.r.r.r.r.r.r.r.r.r.r.0.) ! ! ) 0.w.0.} & y +.4.! 1 . % ` +.+.` % t.t.t.t.t.t.",
"t.t.t.t.t.t.t.t.t.t.t.  . . i ,.0.) ) 0.r.r.r.r.r.r.0.) ) 0.r.r.w.0.4.4.0.w.r.r.0.) ! ! ( >.0.w.1.f f 1.4.! 8 @ i ,.r.r.,.i   t.t.t.t.t.",
"t.t.t.t.t.t.t.t.t.t.  > 1 1 E 2.w.0.0.w.r.r.r.r.r.r.w.0.0.w.r.r.0.) ! ! ) 0.r.r.w.0.4.4.>.( ) 0.q.1.1.q.4.! 0 8 E 2.r.r.2.E >   t.t.X t.",
"t.t.t.t.t.t.t.t.t.t.. 1 U R ) 0.r.r.r.r.q.1.1.q.w.0.4.4.0.w.r.r.0.) ! ! ( >.0.w.r.r.r.r.0.) ) 0.r.r.w.0.:.R U R ) 0.w.0.:.R 8 @   t.X t.",
"t.t.t.t.t.t.t.t.t.t.. 1 R :.0.w.r.r.r.r.1.f f 1.0.) ! ! ) 0.r.r.w.0.4.4.>.( ) 0.r.r.r.r.w.0.0.w.r.r.0.) R U R :.0.w.0.) R U 0 8 >   t.t.",
"t.t.t.t.t.t.t.t.t.t.  > E 2.r.r.q.1.+.+.] s f 1.0.) ! ! ) 0.e.9.9.e.r.r.0.) ) 0.e.9.9.e.r.r.r.r.r.r.4.! U R ) 0.q.1.o.^ R U q q 1 . t.t.",
"t.t.t.t.t.t.t.t.t.t.t.  i ,.r.r.1.f y y s ] 1.q.w.0.4.4.0.w.9.@.@.9.r.r.w.0.0.w.9.@.@.9.r.r.r.r.r.r.4.! R :.0.w.1.f d o.:.R q q 1 . t.t.",
"t.t.t.t.t.t.t.t.t.% y y f 1.q.1.] s y y f 1.e.9.9.e.r.r.r.r.7.L K $.9.e.r.r.e.9.$.K L 7.e.9.9.e.w.0.>.( ) 0.r.r.1.f s ] o.^ R U 1 . t.t.",
"t.t.t.t.t.t.t.t.% ` +.+.1.q.1.f s ] +.+.1.q.9.@.@.9.r.r.r.r.7.L b K @.9.r.r.9.@.K b L 7.9.@.@.9.0.) ( >.0.w.r.r.q.1.] s d o.:.R 1 . t.t.",
"t.t.t.t.t.t.t.  i ,.r.r.r.r.1.f f 1.r.r.r.r.7.L K $.7.7.9.e.7.L b K I ;.7.7.$.K b K I ;.;.I @.9.0.) ) 0.w.0.0.w.r.r.+.y y +.4.! 9 4 u t.",
"t.t.t.t.t.t.  > E 2.r.r.r.r.q.1.1.q.r.r.r.r.7.L b K L L @.9.7.L K $.;.I L L K b K $.;.I I ;.9.e.w.0.0.w.0.) ) 0.r.r.+.y y +.4.! Y | X.t.",
"t.t.t.t.t.t.+ e ( >.0.w.r.r.q.1.1.q.r.r.r.r.7.L j h h j K $.;.I P -.&.S v v b K I ;.;.I @.9.r.r.r.r.r.r.4.! ! 4.q.1.] s d o.:.R R :.O.~ ",
"t.t.t.t.t.t.& } >.( ) 0.r.r.1.f f 1.r.r.r.r.7.L h * * h b K I ;.-./ G m v v K $.;.I I ;.9.e.r.r.r.r.r.r.4.! ! 4.1.f s ] o.^ R U U R W t.",
"t.t.t.t.t.t.% ` | Y ! 4.q.1.' 3 i ,.r.r.r.r.9.@.V = = V L L I ;.%.r < x b K I ;.;.I @.9.r.r.e.9.9.e.w.0.>.( ^ o.] s d o.:.R U R Y 9 6 t.",
"t.t.t.t.t.t.t.% 4 9 ! 4.1.f 3 2 E 2.r.r.r.r.e.9.#.V V #.7.7.;.I B - O k K $.;.I I ;.9.e.r.r.9.@.@.9.0.) ( >.o.d s ] o.^ R U R :.| 4 # t.",
"t.t.t.t.t.t.t.t.. 1 R :.} & . 1 ! 4.r.r.r.r.r.r.7.L K $.7.7.$.K l : ; z D =.$.K K $.9.e.e.9.;.I @.9.0.) ) 0.1.f f 1.4.! 0 8 e } ` % t.t.",
"t.t.t.t.t.t.t.t.. 1 U R e + . 1 ! 4.r.r.r.r.r.r.7.L b K L L K b C [  .F N D K b b K @.9.9.@.I ;.9.e.w.0.0.w.q.1.1.q.4.! 8 @ + & % t.t.t.",
"t.t.t.t.t.% % t.+ e ! ! E i 3 2 t ..0.w.e.9.7.7.$.K v v v v b K @.9.0.) F z l C K b L 7.9.@.@.9.r.r.r.r.r.r.w.0.4.4.>.( E i % t.t.t.t.t.",
"t.t.t.t.% ` ` % & } 4.4.2.,.' 3 $ t ) 0.9.@.L L K b v v v v K $.9.e.w.0. .; : [ $.K L 7.e.9.9.e.r.r.r.r.r.r.0.) ! ! ( >.2.,.` % t.t.t.t.",
"t.t.t.t.y +.1.f f 1.r.r.r.r.1.f i E ) 0.9.@.L L K b v v c n Z { 1.q.r.r.<.p : [ $.K K $.9.e.r.r.r.r.r.r.w.0.>.( ! ! ) 0.w.0.| 4   t.t.t.",
"t.t.t.t.y +.q.1.1.q.r.r.r.r.q.1.,.2.0.w.e.9.7.7.$.K v v n M 7 5 f 1.r.r.6.A l C K b b K @.9.r.r.r.r.r.r.0.) ( >.4.4.0.w.0.) Y 9 >   X t.",
"% t.t.% f 1.r.r.e.9.8.3.0.w.r.r.r.r.r.r.e.9.9.e.7.L b K J Q r - ;  .0.w.9.@.K b j h l C I ;.7.7.7.7.9.e.0.) ) 0.r.r.r.r.0.) R U 1 . X t.",
"` % % ` 1.q.r.r.9.@.J Q ) 0.r.r.r.r.r.r.9.@.@.9.7.L K $.8.3.%.B z F ) 0.e.9.$.K h * : [ ;.I L L L L @.9.w.0.0.w.r.r.r.r.w.0.:.R 1 . X t.",
"] s f 1.r.r.r.r.9.@.H w ! 4.r.r.r.r.e.9.;.I @.9.7.L K $.7.7.$.K x < r %.7.7.;.I V = p <.9.@.L L L L @.9.r.r.r.r.q.1.1.q.r.r.4.! 9 4 u t.",
"s ] 1.q.r.r.r.r.e.9.*.T ! 4.r.r.r.r.9.@.I ;.9.e.7.L b K L L K b k O - B L L I ;.#.V A 6.e.9.7.7.7.7.9.e.r.r.r.r.1.f f 1.r.r.4.! Y | X.g ",
"% ` ,.2.0.w.r.r.w.0.>.( / -.9.e.r.r.9.@.@.9.e.9.$.K b K K b v v l : : l v v K $.$.K L 7.r.r.r.r.r.r.r.r.w.0.0.w.1.f s ] 1.q.0.) ( >.O.~ ",
"t.% i E ) 0.r.r.0.) ( >.-.P @.9.r.r.e.9.9.e.9.@.K b K $.$.K v v C [ [ C v v b K K b L 7.r.r.r.r.r.r.r.r.0.) ) 0.q.1.] s f 1.w.0.>.( W t.",
"t.t.. 1 R :.4.4.:.R ! 4.9.@.P -.4.4.0.w.e.9.$.K c n H *.-.P K b K $.$.K b K L L K b K $.9.e.r.r.w.0.4.4.>.( ) 0.r.r.1.f s ] 1.q.2.E 6 t.",
"t.t.. 1 U R ! ! R U ! 4.e.9.-./ ! ! ) 0.9.@.K b n M w T / -.$.K b K K b K $.7.7.$.K b K @.9.r.r.0.) ! ! ( >.0.w.r.r.q.1.] s f 1.,.i # t.",
"t.t.  > 8 0 q q 0 8 E 2.r.r.0.) ! ! ) 0.9.@.L L J Q ! ! ) 0.7.L b K L L @.9.r.r.9.@.L L I ;.9.e.0.) ! ! ( >.0.w.r.r.q.1.] s d o.o.d u t.",
"t.t.t.  @ 8 q q 8 @ i ,.r.r.w.0.4.4.0.w.e.9.7.7.8.3.4.4.0.w.7.L K $.7.7.9.e.r.r.e.9.7.7.;.I @.9.w.0.4.4.>.( ) 0.r.r.1.f s ] o.^ ^ o.X.t.",
"t.t.t.t.  > 1 1 >   % ` 1.q.r.r.r.r.r.r.r.r.r.r.r.r.w.0.0.w.9.@.@.9.r.r.r.r.r.r.w.0.0.w.9.@.@.9.r.r.r.r.0.) ) 0.r.r.1.f s ] o.^ ( >.O.~ ",
"t.t.t.t.t.  . .   t.t.% f 1.r.r.r.r.r.r.r.r.r.r.r.r.0.) ) 0.e.9.9.e.r.r.r.r.r.r.0.) ) 0.e.9.9.e.r.r.r.r.w.0.0.w.r.r.q.1.] s d o.>.( W a ",
"t.t.t.t.t.t.t.t.t.t.t.% f 1.q.1.1.q.r.r.q.1.1.q.r.r.0.) ) 0.r.r.r.r.r.r.q.1.,.2.:.R Y | 1.q.r.r.r.r.r.r.r.r.r.r.r.r.w.0.o.d d o.>.( W a ",
"t.t.t.t.t.t.t.t.t.t.% ` 1.q.1.f f 1.r.r.1.f f 1.r.r.w.0.0.w.r.r.r.r.r.r.1.f i E R U 9 4 f 1.r.r.r.r.r.r.r.r.r.r.r.r.0.) ^ o.o.^ ( >.O.~ ",
"t.t.t.t.t.t.t.t.t.t.y +.r.r.1.f s ] +.+.' 3 4 | 0.w.r.r.r.r.w.0.0.w.r.r.1.f 3 2 1 1 2 3 f 1.r.r.w.0.2.,.1.q.r.r.q.1.} e t ..>.( ) 0.5._ ",
"t.t.t.t.t.t.t.t.t.t.y +.r.r.q.1.] s y y 3 2 9 Y ) 0.r.r.r.r.0.) ) 0.r.r.q.1.' 3 . . 3 ' 1.q.r.r.0.) E i f 1.r.r.1.f & + $ t ( >.0.w.5._ ",
"t.t.t.t.t.t.t.t.t.t.y +.r.r.r.r.1.f y y i E R U R :.0.w.r.r.0.) ^ o.1.q.r.r.1.f y y d o.0.w.r.r.4.! 8 @ 3 ' +.+.] s & + @ 8 ! 4.q.1.X.t.",
"t.t.t.t.t.t.t.t.t.t.y +.r.r.r.r.q.1.+.+.,.2.:.R U R ) 0.r.r.w.0.o.d f 1.r.r.q.1.+.+.o.^ ) 0.r.r.4.! 0 8 2 3 y y s ] } e 8 0 ! 4.1.f u t.",
"t.t.t.t.t.t.t.t.t.t.& } 0.w.r.r.r.r.r.r.w.0...t 9 Y ) 0.r.r.r.r.+.y y +.r.r.r.r.w.0.:.R R :.0.w.0.) R U 8 @ . . 4 | :.R U R ^ o.` % X t.",
"t.t.t.t.t.t.t.t.t.t.+ e ) 0.r.r.r.r.r.r.0.) t $ 4 | 0.w.r.r.r.r.+.y y +.r.r.r.r.0.) R U U R ) 0.w.0.:.R 0 8 1 1 9 Y R U R :.o.d % t.t.t.",
"t.t.t.t.t.t.t.% % t.  > t ..0.w.w.0.4.4...t >   & } 4.4.4.4.0.w.1.f s ] ,.2.4.4.:.R 0 8 9 Y / -.9.e.0.) R U q q U R Y 9 e } ` % t.t.t.t.",
"t.t.t.t.t.t.% ` ` % t.  $ t ) 0.0.) ! ! t $   t.+ e ! ! ! ! ) 0.q.1.] s i E ! ! R U 8 @ 4 | -.P @.9.w.0.:.R q q R :.| 4 + & % t.t.t.t.t.",
"t.t.t.t.t.t.% ` ] s % t.  > t ..:.R 0 8 >   t.t.  > 1 1 1 1 E 2.r.r.1.f 3 2 1 1 1 1 2 3 f 1.9.@.P -.4.4...t 1 1 e } ` % t.% % t.t.t.t.t.",
"t.t.t.t.t.t.t.% s ] ` % t.  $ t R U 8 @   t.t.t.t.  . . . . i ,.r.r.q.1.' 3 . . . . 3 ' 1.q.e.9.-./ ! ! t $ . . + & % t.% ` ` % t.t.t.t.",
"t.t.t.t.t.t.t.  3 ' ' 3   t.  > 1 1 >   t.t.t.% & +   t.t.t.% ` 1.q.r.r.1.f y y y y f 1.r.r.w.0.:.R U R e + t.t.t.    t.& } } & t.t.t.t.",
"t.t.t.t.t.t.  > 2 3 3 2 >   t.  . .   t.t.t.% ` } e >   t.t.t.% f 1.r.r.q.1.+.+.+.+.1.q.r.r.0.) R U R :.} & t.t.  > >   + e e + t.t.t.t.",
"t.t.t.t.t.% 3 2 >   . 1 1 . t.t.t.t.t.t.t.t.% ` } e 2 3 % t.t.t.% ` 1.q.r.r.w.0.4.4.0.w.w.0.:.R q q Y | ` % t.t.  > , o o , 2 3 % t.t.t.",
"t.t.t.t.% ` ' 3   t.. 1 1 . t.t.t.t.t.t.t.t.t.% & + 3 ' ` % t.t.t.% f 1.r.r.0.) ! ! ) 0.0.) R U q q 9 4 % t.t.t.t.  o , , o 3 ' ` % t.t.",
"t.t.t.% s ] ` % t.t.  > >   t.t.t.t.t.t.t.t.t.t.t.% s ] ` % t.t.t.t.% ` ,.2.:.R q q Y | | Y 0 8 1 1 >   t.t.t.t.t.t.  > >   % ` ' 3 t.t.",
"t.t.% ` ] s % t.t.t.t.    t.t.t.t.t.t.t.t.t.t.t.% ` ] s % t.t.t.t.t.t.% i E R U q q 9 4 4 9 8 @ . .   t.t.t.t.t.t.t.t.    t.t.% 3 2 6 t.",
"t.t.% ` ` % t.t.t.t.t.t.t.t.t.t.t.t.t.t.t.t.t.t.% ` ` % t.t.t.t.t.t.t.t.  > 1 1 1 1 >     > >   t.t.t.t.t.t.t.t.t.t.t.t.t.t.t.t.  > 6 t.",
"t.t.t.% % t.t.t.t.t.t.t.t.t.t.t.t.t.t.t.t.t.t.t.t.% % t.t.t.t.t.t.t.t.t.t.  . . . .   t.t.    t.t.t.t.t.t.t.t.t.t.t.t.t.t.t.t.t.t.  t.t."
};
