/* XPM */
static char *result[] = {
/* columns rows colors chars-per-pixel */
"32 30 100 2 ",
"   c #110217",
".  c #16031F",
"X  c #21052E",
"o  c #3E0F20",
"O  c #211227",
"+  c #270635",
"@  c #31153E",
"#  c gray19",
"$  c #353138",
"%  c #4F150F",
"&  c #54221D",
"*  c #523936",
"=  c #5D3C38",
"-  c #762B23",
";  c #320744",
":  c #38084C",
">  c #5F144C",
",  c #430A5B",
"<  c #421754",
"1  c #403247",
"2  c #46334E",
"3  c #4C3549",
"4  c #64205A",
"5  c #480B62",
"6  c #531A6B",
"7  c #530C71",
"8  c #752371",
"9  c #623774",
"0  c #67387B",
"q  c gray25",
"w  c #504257",
"e  c #624946",
"r  c #656067",
"t  c gray44",
"y  c #93281B",
"u  c #AA2E1F",
"i  c #8D2620",
"p  c #983529",
"a  c #982730",
"s  c #B53121",
"d  c #BA3E2F",
"f  c #973050",
"g  c #862A60",
"h  c #A14E44",
"j  c #B85548",
"k  c #A64E59",
"l  c #A65B52",
"z  c #B2515B",
"x  c #AC4F60",
"c  c #B65E69",
"v  c #C3584A",
"b  c #CB7C79",
"n  c #D17E74",
"m  c #631C81",
"M  c #733A8A",
"N  c #7E3D8C",
"B  c #783A92",
"V  c #724784",
"C  c #894181",
"Z  c #94508A",
"A  c #82499A",
"S  c #9267A3",
"D  c #9D6AA5",
"F  c #9768AB",
"G  c #A277B3",
"H  c gray56",
"J  c #959097",
"K  c #9B9291",
"L  c #BD9C97",
"P  c #B7999D",
"I  c #A092A6",
"U  c #A693AD",
"Y  c #B194BC",
"T  c #BC97BE",
"R  c #B0A2B6",
"E  c gray75",
"W  c #D58B82",
"Q  c #D3A29B",
"!  c #DFA59D",
"~  c #C89CB3",
"^  c #D9A3A3",
"/  c #D2ABBC",
"(  c #E3B2AB",
")  c #B695C4",
"_  c #C1A4CC",
"`  c #C5C0C6",
"'  c #CBC2C1",
"]  c gray81",
"[  c #D0C2D5",
"{  c #DBC5D7",
"}  c #D5C2DD",
"|  c #E1C8C5",
" . c #E7C9CC",
".. c #F1D8D5",
"X. c #E0D2E5",
"o. c #EFEFEE",
"O. c #F5F0F6",
"+. c #FAF2F0",
"@. c #FFFFFE",
"#. c None",
/* pixels */
"#.#.#.#.#.#.#.#.#.#.  ; ;   #.#.#.#.# H H # #.#.#.#.#.#.#.#.#.#.",
"#.# # #.#.#.#.    #.O 9 0 @   #.#.# r R I $ #.#.#.#.#.# # #.#.#.",
"# H H # #.#.  ; ;   $ I Y 0 ;   # H R S 9 O #.#.#.#.# H H # #.#.",
"$ I R r q q 1 < ;   $ I _ F 9 O q E } A , . #.# q q r R I $ #.#.",
"O 9 S R E E J 1   #.O 9 F _ I $ q E } A , . # H E E R S 9 O #.#.",
"  ; 0 Y } } R r $ O + 5 A } ] t t ] } A 6 2 r R } } Y 0 ;   #.#.",
"#.  @ 0 A A S R I 9 5 7 A } o.] ] o.} A M U R S A A 0 @   #.#.#.",
"#.#.  ; 5 7 A } { Z 8 N G X.@.@.O.X.T C Z { X.G M 6 : X   #.#.#.",
"#.#.#.  + 5 A }  .c x ~ X.O.@.@.X.G C f c  .O.X.U 2 X : ;   #.#.",
"#.    #.  ; 0 Y / b n ( | ' ' | / D Z c b / } } I $   ; ;   #.#.",
"  ; ;   #.  @ 0 D / ( n l e e l b / {  ./ D A A 9 O #.    #.#.#.",
"  ; ;   #.# w V G X...W h & % y v ! | ' U M m B V w q q # #.#.#.",
"#.    #.# H ` [ X.O.+...Q h y u d v l e 2 6 B ) [ ` E E H # #.#.",
"q q # #.q E O.X.X.O.o.] L j s s u y - * w V F _ } } [ ` H # #.#.",
"E E H # q E X.G G X.] t = p s s y % * K ` [ _ F A A V w # #.#.#.",
"E E J 1 2 U _ F G X.` w o i s s y % e ' O.X.) B 7 5 : X   #.#.#.",
"q q 1 < 6 M F _ X.O.[ V > a s s u y l | X.G B m 5 + X : ;   #.#.",
"#.#.  ; , , V [ +.../ D C f a i i a c  .{ Z 8 N 9 O   ; ;   #.#.",
"#.#.#.  . . w ` ..W b / T C > o o > Z {  .c x ~ I $ #.    #.#.#.",
"#.#.#.    #.$ I / b n ( / D V w w V D / ^ z c  .] t # #.#.#.#.#.",
"#.#.  ; ;   O 9 D / ( n b / [ ` ` [ / b z g Z { o.] H # #.#.#.#.",
"#.#.  ; : X @ 0 F _ / b b / } } X.O...W k 4 0 Y } } R r # #.#.#.",
"#.#.#.  X : 0 Y _ F D / / D A A G X.+...P 3 @ 0 A A S R H # #.#.",
"#.#.#.#.O 9 F _ ) B A } } A 7 5 0 Y X.O.E q   ; , , 0 Y I $ #.#.",
"#.#.#.#.$ I _ F B m A } } A 5 + @ 0 G X.E q #.  . . @ 0 9 O #.#.",
"#.#.#.# r R Y 0 , , V [ [ V : X X : 0 Y U 2   #.#.#.  ; ;   #.#.",
"#.#.# H R S 0 @ . . w ` ` w X : : X @ 0 M 6 ;   #.#.#.    #.#.#.",
"#.#.# H I 9 ;   #.#.# H H #   ; ;     ; , , ;   #.#.#.#.#.#.#.#.",
"#.#.#.# $ #.#.#.#.#.#.# # #.#.    #.#.  . .   #.#.#.#.#.#.#.#.#.",
"#.#.#.#.#.#.#.#.#.#.#.#.#.#.#.#.#.#.#.#.#.#.#.#.#.#.#.#.#.#.#.#."
};
