/* XPM */
static char *result[] = {
/* columns rows colors chars-per-pixel */
"30 30 136 2 ",
"   c black",
".  c #00001D",
"X  c #00002F",
"o  c #151F2C",
"O  c #000035",
"+  c #00003D",
"@  c #001630",
"#  c #001A34",
"$  c #001B3A",
"%  c #3F413D",
"&  c #000044",
"*  c #000C45",
"=  c #000E49",
"-  c #001A47",
";  c #001C4C",
":  c #00244D",
">  c #002D4F",
",  c #193145",
"<  c #002754",
"1  c #002B52",
"2  c #003355",
"3  c #0B3755",
"4  c #0D3856",
"5  c #003759",
"6  c #003858",
"7  c #0A3959",
"8  c #163652",
"9  c #163955",
"0  c #1A3954",
"q  c #123A59",
"w  c #193D5B",
"e  c #213C55",
"r  c #203F5B",
"t  c #003D60",
"y  c #1E415E",
"u  c #23415D",
"i  c #29445E",
"p  c #1B4160",
"a  c #244260",
"s  c #274963",
"d  c #2A4A65",
"f  c #214A68",
"g  c #2C4E69",
"h  c #324C65",
"j  c #314D69",
"k  c #25536D",
"l  c #2E526B",
"z  c #34516C",
"x  c #3C546B",
"c  c #474444",
"v  c #4A4A4A",
"b  c #43586C",
"n  c #485E6F",
"m  c #555B62",
"M  c #475C72",
"N  c #4A5D73",
"B  c #4E647A",
"V  c #546574",
"C  c #556478",
"Z  c #5B6B79",
"A  c #646360",
"S  c #676868",
"D  c #6B6C6B",
"F  c #757275",
"G  c #77767A",
"H  c #5F7487",
"J  c #657283",
"K  c #6B7583",
"L  c #65768A",
"P  c #65788B",
"I  c #697B8D",
"U  c #757C81",
"Y  c #757E8B",
"T  c #797F8A",
"R  c #76818D",
"E  c #79828D",
"W  c #7D8592",
"Q  c #818794",
"!  c #838B96",
"~  c #8A8D95",
"^  c #848C9A",
"/  c #8A8E99",
"(  c #908E90",
")  c #8C929C",
"_  c #969596",
"`  c #94969F",
"'  c #A1A19E",
"]  c #8596A7",
"[  c #8798A8",
"{  c #8C9BAA",
"}  c #9197A1",
"|  c #969BA4",
" . c #989BA4",
".. c #9CA1A6",
"X. c #9EA2A9",
"o. c #A3A5A3",
"O. c #A4A5AB",
"+. c #AAA7AA",
"@. c #A6A8AE",
"#. c #ACABAF",
"$. c #A4ABB6",
"%. c #ABACB3",
"&. c #B4B2B4",
"*. c #B6B5B9",
"=. c #BAB7BA",
"-. c #BCBABC",
";. c #C0BDBF",
":. c #BCBDC0",
">. c #C2BEC1",
",. c #BDC2CB",
"<. c #C4C2C4",
"1. c #C8C5C7",
"2. c #C2C3CC",
"3. c #C9C6C9",
"4. c #CCC9CC",
"5. c #D3CECF",
"6. c #D3CFD1",
"7. c #CFD3DD",
"8. c #D4D2D4",
"9. c #D1D4DD",
"0. c #DAD7DA",
"q. c #D5D8D9",
"w. c #DCDADB",
"e. c #D2D5E0",
"r. c #D5D9E3",
"t. c #E5E6E6",
"y. c #E8E5E7",
"u. c #E7E7E9",
"i. c #E8E6E8",
"p. c #EEEDEE",
"a. c #F1EFF2",
"s. c #F4F2F4",
"d. c #F6F4F8",
"f. c #F9F5F9",
"g. c #FEFDFF",
"h. c None",
/* pixels */
"h.h.h.h.h.u w w w w h.h.h.h.r a w w w 9 h.h.h.h.0 u w w w w ",
"h.h.h.h.h.1 7 w w w h.h.h.h.1 2 q w w 0 h.h.h.h.: 2 w w w w ",
"h.h.h.h.h.) N 7 a a h.h.h.h.! ^ b w u e h.h.h.h.E J 2 u w w ",
"h.h.h.h.F 6.J & 2 2 h.h.h.h.>.1.C = 2 : h.h.h.h.&. .+ 6 y w ",
"h.h.h.h.h.% K / ^ ^ G F F F &.-.} Q ^ Q G F F F &.@.! Y   o ",
"h.h.h.h.h.h.' 4.>.<.1.1.1.1.>.:.>.>.1.>.1.1.1.1.;.>.5.1.h.h.",
"h.h.h.h.h.h._ <.&.%.%.%.%.%.%.%.%.%.%.%.%.%.%.%.%.%.*.O.h.h.",
"h.h.h.h.h.+.&.<./ t x z j j j j j j j j j j j g z z z h 8 w ",
"h.h.h.h.h.<.>.<./ * w 3 u s a d d s s s s d l l 9 3 4 9 y p ",
"h.h.h.h.h.>.-.>./ ; h 2 ! &.%.%.%.%.%.%.@.:.u.7.f u y w w w ",
"h.h.h.h.h.1.<.1./ - r & ` 1.-.>.;.-.-.-.-.8.g.a.1 > y w w w ",
"h.h.h.h.h.) ) ) K 1 J J O.:.=.-.4.8.q.8.-.1.t.q.{ L 2 y u u ",
"h.h.h.h.h.& + + * + +.-.=.-.>.;.s.g.g.g.3.-.=.-.g.,.+ u - - ",
"v D S A U { { { { ] 4.w.1.*.) ! $.,.f.f.1.-.-.,.g.2.O N [ { ",
";.g.g.g.g.g.g.g.g.g.g.g.w.#.z 1 + k d.g.1.-.-.<.g.2.. R f.g.",
"*.g.g.g.g.g.f.g.f.g.g.g.w.#.x 6 w B s.f.1.=.-.<.g.2.. Y s.g.",
"h.v v c m I I P I H <.8.<.*. . .N a L I %.>.=.<.g.2.O x P P ",
"h.h.h.h.h.; ; ; : & +.-.-.-.>.:.Z 1 1 1 O.>.=.<.g.,.+ i > > ",
"h.h.h.h.h.r.e.9.9.7.u.a.6.=.-.-.@.....O.*.4.p.t.6. .; u r y ",
"h.h.h.h.h.g.g.g.g.g.g.g.0.&.-.=.-.-.-.>.&.4.g.d.<./ 1 u w w ",
"h.h.h.h.h.g.g.g.g.g.a.s.w.1.4.4.4.3.4.4.4.0.g.s.1.) 1 i w w ",
"h.h.h.h.o.g.g.g.g.g.4.&.y.g.g.g.g.g.g.g.g.g.g.f.1.~ & 7 p p ",
"h.h.h.h.h.p.f.g.f.a.1.*.w.s.p.p.p.p.p.p.p.p.a.u.<.| V V 2 y ",
"h.h.h.h.h.h.4.g.w.&.-.-.-.-.-.-.=.-.=.=.=.-.-.-.-.-.<.*.h.h.",
"h.h.h.h.h.h.w.g.i.-.4.4.4.4.<.>.;.;.<.<.1.4.4.1.<.>.4.<.h.h.",
"h.h.h.h.h.# E $.) Y h.h.h.h.W E R R R E ( h.h.h.T W W K $ , ",
"h.h.h.h.@ < - + = 1 h.h.h.h.+ & - > > - h.h.h.h.O = : 1 w w ",
"h.h.h.h.h. .C w s a h.h.h.h.} | n 9 i e h.h.h.h.~ Y 2 u w w ",
"h.h.h.h.h.4.K : r w h.h.h.h.>.1.Z 1 y 9 h.h.h.h.&. .; i w w ",
"h.h.h.h.h.<.J 1 r w h.h.h.h.-.>.Z 1 u 9 h.h.h.h.#.` ; r w w "
};
