/* XPM */
static char *result[] = {
/* columns rows colors chars-per-pixel */
"30 30 157 2 ",
"   c black",
".  c #00001B",
"X  c #000022",
"o  c #000034",
"O  c #00003D",
"+  c #011C35",
"@  c #0D2337",
"#  c #0D283C",
"$  c #112B3D",
"%  c #212E3E",
"&  c #000043",
"*  c #000E44",
"=  c #000C48",
"-  c #001C4B",
";  c #002942",
":  c #0D2B40",
">  c #00244E",
",  c #00284A",
"<  c #142E43",
"1  c #002650",
"2  c #002C52",
"3  c #002D59",
"4  c #023455",
"5  c #0B3756",
"6  c #0E3857",
"7  c #003659",
"8  c #003A5B",
"9  c #083C5C",
"0  c #133856",
"q  c #143D5B",
"w  c #1A3D5B",
"e  c #203648",
"r  c #343A42",
"t  c #243D55",
"y  c #213F5B",
"u  c #1B405E",
"i  c #39414D",
"p  c #22415D",
"a  c #2A445D",
"s  c #064162",
"d  c #1C4262",
"f  c #1D4768",
"g  c #1F4869",
"h  c #234561",
"j  c #2B4661",
"k  c #274963",
"l  c #284963",
"z  c #2B4D68",
"x  c #304B67",
"c  c #384C62",
"v  c #314D69",
"b  c #2F536C",
"n  c #34516C",
"m  c #39536C",
"M  c #375772",
"N  c #474242",
"B  c #4B4A4B",
"V  c #63635E",
"C  c #465262",
"Z  c #485460",
"A  c #4D5B63",
"S  c #575F67",
"D  c #435772",
"F  c #475B70",
"G  c #4B5E73",
"H  c #5C656C",
"J  c #4B6375",
"K  c #536376",
"L  c #596876",
"P  c #566A7E",
"I  c #5A6C7F",
"U  c #61656E",
"Y  c #676A68",
"T  c #6C6B6C",
"R  c #666E74",
"E  c #757275",
"W  c #767579",
"Q  c #79787A",
"!  c #5B6D81",
"~  c #636F80",
"^  c #657687",
"/  c #6B7683",
"(  c #64778B",
")  c #68778A",
"_  c #66798B",
"`  c #6D7D8F",
"'  c #757B85",
"]  c #7E7F85",
"[  c #747D8A",
"{  c #77818B",
"}  c #79828D",
"|  c #6F8193",
" . c #7C8593",
".. c #708499",
"X. c #7B8D9E",
"o. c #858384",
"O. c #858689",
"+. c #808790",
"@. c #848A94",
"#. c #838C99",
"$. c #8D9196",
"%. c #8C929C",
"&. c #9C9C9F",
"*. c #8F96A1",
"=. c #8C9CAB",
"-. c #9196A0",
";. c #9499A4",
":. c #9A9EA4",
">. c #939DAA",
",. c #999FA8",
"<. c #9DA2AA",
"1. c #94A5B4",
"2. c #98A2B0",
"3. c #A6A5A4",
"4. c #A8A6AB",
"5. c #ABABAF",
"6. c #B3AEAF",
"7. c #A4AAB6",
"8. c #ACADB3",
"9. c #B0AFB4",
"0. c #A7B0BB",
"q. c #A9B0BC",
"w. c #B4B2B4",
"e. c #BAB6B7",
"r. c #B6B4B9",
"t. c #B9B6B9",
"y. c #BCBABC",
"u. c #C0BCBF",
"i. c #B5BCC2",
"p. c #BFBEC3",
"a. c #C2BFC2",
"s. c #C5C1C3",
"d. c #C8C4C7",
"f. c #C6C4C9",
"g. c #CAC7CA",
"h. c #CDC9CD",
"j. c #D1CCCE",
"k. c #C6CAD0",
"l. c #CACED3",
"z. c #D0CDD0",
"x. c #CDD0D4",
"c. c #CFD3DD",
"v. c #D4D3D4",
"b. c #D7D9D7",
"n. c #D1D5DD",
"m. c #DEDDDE",
"M. c #E0DDDF",
"N. c #D8DCE7",
"B. c #E4E3E4",
"V. c #E7E9E7",
"C. c #E9E7E9",
"Z. c #EDECED",
"A. c #EEEDF4",
"S. c #F1EEF1",
"D. c #F4F1F4",
"F. c #FEFDFF",
"G. c None",
/* pixels */
"G.p.W 1 p w @ G.G.G.R a.4.2 y w G.G.G.G.%.w.t q w # G.G.G.G.",
"G.f.Q > p u @ G.G.G.R f.8.1 p w G.G.G.G.%.e.t q h $ G.G.G.G.",
"G.;.H 4 a h % G.G.G.A ,.@.5 p p G.G.G.G.[ %.j h w < G.G.G.G.",
"G.3 7 1 > 2   G.G.G.X & & 2 > 1 G.G.G.G.& O o - d # G.G.G.G.",
"G.: C  .[ { { G.G.G.{ } { [ { { &.G.G.G.[ #.7.@.+ G.G.G.G.G.",
"G.G.G.h.a.s.s.g.h.g.a.a.a.a.a.a.g.g.g.h.y.m.F.M.G.G.G.G.G.G.",
"G.G.G.a.r.y.y.y.e.y.e.y.e.t.y.t.e.y.y.y.w.v.F.b.G.G.G.G.G.G.",
"G.5 c L / r.b.S.Z.Z.S.Z.Z.D.Z.Z.D.C.y.y.Z.D.F.D.C.G.G.G.G.G.",
"G.g q > m r.B.F.F.F.F.F.F.F.F.F.F.D.y.s.F.F.F.F.F.9.G.G.G.G.",
"G.u p 6 F r.m.F.V.g.h.g.g.g.h.h.g.z.S.S.F.F.F.F.F.6.G.G.G.G.",
"G.d w 4 F w.m.F.V.w.y.y.y.y.t.t.r.g.F.F.F.F.F.F.F.w.G.G.G.G.",
"G.h p 4 G s.m.S.m.y.5.<.3.<.t.u.t.g.S.Z.c.c.c.n.N.$.G.G.G.G.",
"G.3 5 2 P F.m.e.y.y.K * 4 h 8.s.y.y.y.9.4 = - - > X G.G.G.G.",
"G...P , P F.m.9.p.y.#.( D w *.,.9.a.j.h.` ) ) ( ` S N B B G.",
"y.F.k.o ! F.m.t.y.y.C.F.>.- h 7 :.h.F.F.F.F.F.F.F.F.F.F.F.t.",
"y.F.l.o ! F.m.t.y.y.Z.F.>.X 7 1 :.h.F.F.F.F.F.F.F.F.F.F.F.s.",
"/ 1.| - P F.m.r.a.e.Z.F.n.0.%.@.8.s.b.v.=.=.=.=.>.{ V Y T B ",
"G.- 4 2 P F.M.9.y.y.Z.F.F.F.g.a.p.y.y.w.4 O O O &   G.G.G.G.",
"G.k p 6 m X.i.V.v.e.l.b.v.v.y.t.y.9.^ ) q K %.%.-.U G.G.G.G.",
"G.d q w a . q.F.C.y.u.t.y.y.u.u.s.8.> 0 > ' g.a.g.o.G.G.G.G.",
"G.d w w a - <.A.l.8.8.8.8.8.8.8.8.,.6 j > ' u.y.a.o.G.G.G.G.",
"G.f w 5 6 5 h b z k k k l l h k l h 6 w - ' a.y.g.o.G.G.G.G.",
"G.0 y n n v b z v v v v v v x x v v v m s } s.r.8.T G.G.G.G.",
"G.G.G.r.8.8.8.8.8.8.8.8.8.8.8.8.8.8.8.8.8.9.s.&.G.G.G.G.G.G.",
"G.G.G.z.a.a.d.d.d.g.s.u.a.s.s.d.g.s.g.d.s.s.g.3.G.G.G.G.G.G.",
"G.%.9.#.#.#.O.E E T $.u.8.@.#.@.Q E E W o.Q @.[ J G.G.G.G.G.",
"G.<.y.& 4 7 r G.G.G.H g.5.& 4 3 G.G.G.G.O.9., 9 M e G.G.G.G.",
"G.! { 5 p h i G.G.G.Z #.[ 5 p p G.G.G.G.^ +.t d h $ G.G.G.G.",
"G.8 2 w w u @ G.G.G.; 4 3 w w w G.G.G.G.4 3 w w u $ G.G.G.G.",
"G.f y w w u @ G.G.G.< h t w q w G.G.G.G.w p w w w $ G.G.G.G."
};
