/* XPM */
static char *result[] = {
/* columns rows colors chars-per-pixel */
"30 30 157 2 ",
"   c black",
".  c #00001B",
"X  c #000022",
"o  c #000034",
"O  c #00003D",
"+  c #011C35",
"@  c #0D2337",
"#  c #0D283C",
"$  c #112B3D",
"%  c #212E3E",
"&  c #000043",
"*  c #000E44",
"=  c #000C48",
"-  c #001C4B",
";  c #002942",
":  c #0D2B40",
">  c #00244E",
",  c #00284A",
"<  c #142E43",
"1  c #002650",
"2  c #002C52",
"3  c #002D59",
"4  c #023455",
"5  c #0B3756",
"6  c #0E3857",
"7  c #003659",
"8  c #003A5B",
"9  c #083C5C",
"0  c #133856",
"q  c #143D5B",
"w  c #1A3D5B",
"e  c #203648",
"r  c #343A42",
"t  c #243D55",
"y  c #213F5B",
"u  c #1B405E",
"i  c #39414D",
"p  c #22415D",
"a  c #2A445D",
"s  c #064162",
"d  c #1C4262",
"f  c #1D4768",
"g  c #1F4869",
"h  c #234561",
"j  c #2B4661",
"k  c #274963",
"l  c #284963",
"z  c #2B4D68",
"x  c #304B67",
"c  c #384C62",
"v  c #314D69",
"b  c #2F536C",
"n  c #34516C",
"m  c #39536C",
"M  c #375772",
"N  c #474242",
"B  c #4B4A4B",
"V  c #63635E",
"C  c #465262",
"Z  c #485460",
"A  c #4D5B63",
"S  c #575F67",
"D  c #435772",
"F  c #475B70",
"G  c #4B5E73",
"H  c #5C656C",
"J  c #4B6375",
"K  c #536376",
"L  c #596876",
"P  c #566A7E",
"I  c #5A6C7F",
"U  c #61656E",
"Y  c #676A68",
"T  c #6C6B6C",
"R  c #666E74",
"E  c #757275",
"W  c #767579",
"Q  c #79787A",
"!  c #5B6D81",
"~  c #636F80",
"^  c #657687",
"/  c #6B7683",
"(  c #64778B",
")  c #68778A",
"_  c #66798B",
"`  c #6D7D8F",
"'  c #757B85",
"]  c #7E7F85",
"[  c #747D8A",
"{  c #77818B",
"}  c #79828D",
"|  c #6F8193",
" . c #7C8593",
".. c #708499",
"X. c #7B8D9E",
"o. c #858384",
"O. c #858689",
"+. c #808790",
"@. c #848A94",
"#. c #838C99",
"$. c #8D9196",
"%. c #8C929C",
"&. c #9C9C9F",
"*. c #8F96A1",
"=. c #8C9CAB",
"-. c #9196A0",
";. c #9499A4",
":. c #9A9EA4",
">. c #939DAA",
",. c #999FA8",
"<. c #9DA2AA",
"1. c #94A5B4",
"2. c #98A2B0",
"3. c #A6A5A4",
"4. c #A8A6AB",
"5. c #ABABAF",
"6. c #B3AEAF",
"7. c #A4AAB6",
"8. c #ACADB3",
"9. c #B0AFB4",
"0. c #A7B0BB",
"q. c #A9B0BC",
"w. c #B4B2B4",
"e. c #BAB6B7",
"r. c #B6B4B9",
"t. c #B9B6B9",
"y. c #BCBABC",
"u. c #C0BCBF",
"i. c #B5BCC2",
"p. c #BFBEC3",
"a. c #C2BFC2",
"s. c #C5C1C3",
"d. c #C8C4C7",
"f. c #C6C4C9",
"g. c #CAC7CA",
"h. c #CDC9CD",
"j. c #D1CCCE",
"k. c #C6CAD0",
"l. c #CACED3",
"z. c #D0CDD0",
"x. c #CDD0D4",
"c. c #CFD3DD",
"v. c #D4D3D4",
"b. c #D7D9D7",
"n. c #D1D5DD",
"m. c #DEDDDE",
"M. c #E0DDDF",
"N. c #D8DCE7",
"B. c #E4E3E4",
"V. c #E7E9E7",
"C. c #E9E7E9",
"Z. c #EDECED",
"A. c #EEEDF4",
"S. c #F1EEF1",
"D. c #F4F1F4",
"F. c #FEFDFF",
"G. c None",
/* pixels */
"G.G.G.G.$ w w w u w G.G.G.G.u w w t h < G.G.G.# w w q y d G.",
"G.G.G.G.$ w w w 3 4 G.G.G.G.q w w 4 4 ; G.G.G.+ d w w 2 8 G.",
"G.G.G.G.$ h h t O.R G.G.G.G.y y 6 [ #.Z G.G.G.i k p 5 } ! G.",
"G.G.G.G.e M s , 9.@.G.G.G.G.3 4 & 5.g.H G.G.G.r 4 4 & y.<.G.",
"G.G.G.G.G.J [ @.Q O.W E E Q #.#. .9.p.$.T W E O.#.#.#.8.*.G.",
"G.G.G.G.G.G.3.g.a.a.d.d.d.d.d.a.s.a.u.s.d.d.d.s.a.a.z.G.G.G.",
"G.G.G.G.G.G.&.s.9.8.8.8.8.8.8.8.8.8.8.8.8.8.8.8.8.8.i.G.G.G.",
"G.G.G.G.T 5.w.s.[ s M v v v x x v v v v v v z n v m v t 0 G.",
"G.G.G.G.O.d.u.a.[ - t 6 h l l l l l l k k l n h 5 0 5 w f G.",
"G.G.G.G.o.s.y.u.' 1 j 9 :.8.8.8.8.8.8.8.8.x.A.2.> a w w d G.",
"G.G.G.G.o.d.a.d.[ - 0 > 8.a.p.y.y.y.y.y.y.C.F.q.. a w q d G.",
"G.G.G.G.U -.%.%.K w ) ^ 9.u.t.p.v.v.b.h.t.v.V.i.X.n 6 p k G.",
"G.G.G.G.  & & O & 5 w.t.y.y.u.d.F.F.F.Z.y.y.w.M.F.P 2 2 - G.",
"B T Y V ' =.=.=.=.=.v.b.s.9.#.%.0.n.F.Z.y.y.e.m.F.P - | 1./ ",
"s.F.F.F.F.F.F.F.F.F.F.F.j.:.2 8 X >.F.Z.y.y.e.m.F.! o l.F.y.",
"t.F.F.F.F.F.F.D.F.F.F.F.h.:.7 a - >.F.C.y.y.r.m.F.I o k.F.y.",
"G.B B N S ` _ _ _ | h.h.s.w.,.%.u D ( #.y.y.t.N.F.P > ! ..G.",
"G.G.G.G.X - - - * 7 w.y.y.y.s.8.p 4 * K y.y.e.M.F.P , 5 3 G.",
"G.G.G.G.$.N.N.c.c.n.Z.Z.f.y.y.t.<.<.<.5.t.m.D.m.s.G 4 p h G.",
"G.G.G.G.w.F.F.F.F.F.F.F.g.w.t.y.y.y.y.u.w.B.F.m.w.F 4 w d G.",
"G.G.G.G.6.F.F.F.F.F.Z.Z.v.g.h.h.h.g.h.h.g.V.F.M.t.G 0 u d G.",
"G.G.G.G.9.F.F.F.F.F.s.y.D.F.F.F.F.F.F.F.F.F.F.B.w.m - u g G.",
"G.G.G.G.G.C.D.F.D.Z.y.y.C.D.Z.Z.Z.Z.Z.Z.Z.Z.S.b.t.^ L c 5 G.",
"G.G.G.G.G.G.v.F.v.w.y.y.y.t.t.y.e.y.y.e.y.e.y.t.y.t.a.G.G.G.",
"G.G.G.G.G.G.M.F.m.y.h.g.d.d.s.a.a.a.s.s.d.h.h.s.s.a.h.G.G.G.",
"G.G.G.G.G.+ #.7.#.[ G.G.G.:.} [ { { } ' G.G.G.]  .[ } C : G.",
"G.G.G.G.# h - O O & G.G.G.G.1 > , O & X G.G.G.  2 > 1 4 3 G.",
"G.G.G.G.$ u p a %.[ G.G.G.G.p a 7 @.<.A G.G.G.e h a 7 H ;.G.",
"G.G.G.G.$ u q t e.%.G.G.G.G.w p 2 8.d.R G.G.G.@ w p 1 Q f.G.",
"G.G.G.G.$ u q t w.%.G.G.G.G.w p , 4.a.R G.G.G.@ u y 1 W p.G."
};
