/* XPM */
static char *result[] = {
/* columns rows colors chars-per-pixel */
"30 30 136 2 ",
"   c black",
".  c #00001D",
"X  c #00002F",
"o  c #151F2C",
"O  c #000035",
"+  c #00003D",
"@  c #001630",
"#  c #001A34",
"$  c #001B3A",
"%  c #3F413D",
"&  c #000044",
"*  c #000C45",
"=  c #000E49",
"-  c #001A47",
";  c #001C4C",
":  c #00244D",
">  c #002D4F",
",  c #193145",
"<  c #002754",
"1  c #002B52",
"2  c #003355",
"3  c #0B3755",
"4  c #0D3856",
"5  c #003759",
"6  c #003858",
"7  c #0A3959",
"8  c #163652",
"9  c #163955",
"0  c #1A3954",
"q  c #123A59",
"w  c #193D5B",
"e  c #213C55",
"r  c #203F5B",
"t  c #003D60",
"y  c #1E415E",
"u  c #23415D",
"i  c #29445E",
"p  c #1B4160",
"a  c #244260",
"s  c #274963",
"d  c #2A4A65",
"f  c #214A68",
"g  c #2C4E69",
"h  c #324C65",
"j  c #314D69",
"k  c #25536D",
"l  c #2E526B",
"z  c #34516C",
"x  c #3C546B",
"c  c #474444",
"v  c #4A4A4A",
"b  c #43586C",
"n  c #485E6F",
"m  c #555B62",
"M  c #475C72",
"N  c #4A5D73",
"B  c #4E647A",
"V  c #546574",
"C  c #556478",
"Z  c #5B6B79",
"A  c #646360",
"S  c #676868",
"D  c #6B6C6B",
"F  c #757275",
"G  c #77767A",
"H  c #5F7487",
"J  c #657283",
"K  c #6B7583",
"L  c #65768A",
"P  c #65788B",
"I  c #697B8D",
"U  c #757C81",
"Y  c #757E8B",
"T  c #797F8A",
"R  c #76818D",
"E  c #79828D",
"W  c #7D8592",
"Q  c #818794",
"!  c #838B96",
"~  c #8A8D95",
"^  c #848C9A",
"/  c #8A8E99",
"(  c #908E90",
")  c #8C929C",
"_  c #969596",
"`  c #94969F",
"'  c #A1A19E",
"]  c #8596A7",
"[  c #8798A8",
"{  c #8C9BAA",
"}  c #9197A1",
"|  c #969BA4",
" . c #989BA4",
".. c #9CA1A6",
"X. c #9EA2A9",
"o. c #A3A5A3",
"O. c #A4A5AB",
"+. c #AAA7AA",
"@. c #A6A8AE",
"#. c #ACABAF",
"$. c #A4ABB6",
"%. c #ABACB3",
"&. c #B4B2B4",
"*. c #B6B5B9",
"=. c #BAB7BA",
"-. c #BCBABC",
";. c #C0BDBF",
":. c #BCBDC0",
">. c #C2BEC1",
",. c #BDC2CB",
"<. c #C4C2C4",
"1. c #C8C5C7",
"2. c #C2C3CC",
"3. c #C9C6C9",
"4. c #CCC9CC",
"5. c #D3CECF",
"6. c #D3CFD1",
"7. c #CFD3DD",
"8. c #D4D2D4",
"9. c #D1D4DD",
"0. c #DAD7DA",
"q. c #D5D8D9",
"w. c #DCDADB",
"e. c #D2D5E0",
"r. c #D5D9E3",
"t. c #E5E6E6",
"y. c #E8E5E7",
"u. c #E7E7E9",
"i. c #E8E6E8",
"p. c #EEEDEE",
"a. c #F1EFF2",
"s. c #F4F2F4",
"d. c #F6F4F8",
"f. c #F9F5F9",
"g. c #FEFDFF",
"h. c None",
/* pixels */
"w w r ; } #.h.h.h.h.8 u 1 Z :.-.h.h.h.h.y y > J <.h.h.h.h.h.",
"w w u ;  .&.h.h.h.h.9 u 1 Z 1.;.h.h.h.h.w u < K 4.h.h.h.h.h.",
"w w i 2 Y ~ h.h.h.h.e i 9 n  .` h.h.h.h.a s w C  .h.h.h.h.h.",
"y y 1 : = X h.h.h.h.- 1 : ; & + h.h.h.h.< = + - < @ h.h.h.h.",
", $ K E E T h.h.h.( E R R R E W h.h.h.h.R ) $.E # h.h.h.h.h.",
"h.h.<.4.>.<.3.4.4.1.<.>.<.>.<.<.4.4.4.4.-.i.g.0.h.h.h.h.h.h.",
"h.h.=.>.-.=.-.-.-.-.-.=.=.=.-.=.-.-.-.;.&.w.g.4.h.h.h.h.h.h.",
"w 5 V V  .<.t.a.p.p.p.p.p.p.p.p.s.w.*.1.p.f.g.f.p.h.h.h.h.h.",
"p y 7 & ~ 1.f.g.g.g.g.g.g.g.g.g.g.y.&.4.g.g.g.g.g.o.h.h.h.h.",
"w w i 1 ) 1.d.g.q.3.4.4.4.4.4.4.3.0.a.s.g.g.g.g.g.h.h.h.h.h.",
"w w u > ) >.d.g.4.&.;.-.-.-.=.=.&.0.g.g.g.g.g.g.g.h.h.h.h.h.",
"u w i : | 8.t.p.4.*.o.X. .@.-.;.=.8.s.u.7.9.7.e.r.h.h.h.h.h.",
"> > i + ,.g.<.=.>.O.1 1 1 Z -.>.-.-.-.@.& ; ; ; ; h.h.h.h.h.",
"L P x O ,.g.<.-.:.&.I L a N | X.=.<.6.>.L I P I I m c v v h.",
"g.d.Y . 2.g.<.-.-.1.f.a.B w 5 b #.0.g.g.f.g.f.g.g.g.g.g.g.=.",
"g.f.R . ,.g.<.-.-.3.g.d.k & < h %.0.g.g.g.g.g.g.g.g.g.g.g.>.",
"[ [ n O ,.g.<.-.-.1.f.f.,.$.! ) -.3.w.4.[ { { { { U A S D v ",
"- ; i + 2.g.;.=.=.4.g.g.g.s.-.>.-.-.-.+.+ = + + & h.h.h.h.h.",
"i u y 2 P { q.t.1.-.8.8.8.4.-.-.:.X.J J 5 Z ) ) ) h.h.h.h.h.",
"w 9 w y > < a.g.8.-.;.-.-.-.<.-.1.` & w - ) 1.<.3.h.h.h.h.h.",
"w w w w i f 9.u.:.$.%.%.%.%.%.#.&.^ < h : / >.;.:.h.h.h.h.h.",
"p p 9 q 3 q g l s s s s s s s s s y 4 r * ( >.>.1.h.h.h.h.h.",
"w 8 d z z z j d j j j j j j z g j j j x t ) >.&.+.h.h.h.h.h.",
"h.h.O.*.%.%.%.%.%.%.%.%.%.%.%.%.%.%.%.%.%.*.>._ h.h.h.h.h.h.",
"h.h.3.5.>.;.1.1.1.1.<.<.1.<.>.>.3.1.<.1.>.>.4.o.h.h.h.h.h.h.",
"o   Y ^ @.&.G F F G Q ! W } -.&.F F F G ^ ^ ) K % h.h.h.h.h.",
"w w 6 &  .&.h.h.h.h.: 2 = C 1.>.h.h.h.h.1 2 & J 5.G h.h.h.h.",
"w w i 2 J T h.h.h.h.e i 9 b ^ ! h.h.h.h.a a 7 N / h.h.h.h.h.",
"w w w y 6 : h.h.h.h.0 w w q 1 1 h.h.h.h.w w w 7 1 h.h.h.h.h.",
"w w w 9 u 0 h.h.h.h.9 w w w u r h.h.h.h.w w w r u h.h.h.h.h."
};
