/* XPM */
static char *result[] = {
/* columns rows colors chars-per-pixel */
"30 30 229 2 ",
"   c black",
".  c #333900",
"X  c #252A00",
"o  c #433D00",
"O  c #503C00",
"+  c #134E00",
"@  c #005800",
"#  c #2E4C00",
"$  c #285600",
"%  c #3D5600",
"&  c #355B01",
"*  c #385700",
"=  c #2D6303",
"-  c #3E6101",
";  c #434600",
":  c #464A00",
">  c #4B4B02",
",  c #5A4C00",
"<  c #495400",
"1  c #455B01",
"2  c #4B5901",
"3  c #535401",
"4  c #5D5400",
"5  c #535B01",
"6  c #5C5D02",
"7  c #535A0A",
"8  c #5C5A1B",
"9  c #655D00",
"0  c #685905",
"q  c #6B570B",
"w  c #4C6301",
"e  c #4F6C00",
"r  c #596402",
"t  c #5B6B00",
"y  c #576804",
"u  c #5C6017",
"i  c #636504",
"p  c #6B6502",
"a  c #6C6A02",
"s  c #746A03",
"d  c #72660A",
"f  c #7A6C0D",
"g  c #786505",
"h  c #6B7407",
"j  c #757103",
"k  c #69621B",
"l  c #6A6814",
"z  c #72691A",
"x  c #62711D",
"c  c #7E7411",
"v  c #79781B",
"b  c #4B5C2D",
"n  c #686C24",
"m  c #797B34",
"M  c #787623",
"N  c #856A09",
"B  c #847A0D",
"V  c #87760A",
"C  c #9A760C",
"Z  c #93750D",
"A  c #9D6D13",
"S  c #877718",
"D  c #927B13",
"F  c #987919",
"G  c #A77D0C",
"H  c #A67E16",
"J  c #B47C16",
"K  c #B67B09",
"L  c #907925",
"P  c #A27D26",
"I  c #C47A00",
"U  c #D47500",
"Y  c #E17300",
"T  c #F17F00",
"R  c #7B8243",
"E  c #83800F",
"W  c #9B820F",
"Q  c #9A831C",
"!  c #948318",
"~  c #A88507",
"^  c #BA8503",
"/  c #B49F0D",
"(  c #AC8614",
")  c #A98618",
"_  c #BA861B",
"`  c #B38717",
"'  c #A99418",
"]  c #91832F",
"[  c #868B3B",
"{  c #99983A",
"}  c #838B2D",
"|  c #A28525",
" . c #BA8924",
".. c #B89326",
"X. c #BC8E33",
"o. c #A9963F",
"O. c #CC8900",
"+. c #DA8802",
"@. c #CA9C00",
"#. c #DC9608",
"$. c #C9871A",
"%. c #C39417",
"&. c #D2931F",
"*. c #D78C13",
"=. c #E38500",
"-. c #E38F00",
";. c #E19500",
":. c #EF9D01",
">. c #E89001",
",. c #F39500",
"<. c #E98719",
"1. c #EB9818",
"2. c #FF9D1C",
"3. c #F3991A",
"4. c #F48C0B",
"5. c #DBA51A",
"6. c #E6A100",
"7. c #E1B10E",
"8. c #E9A51A",
"9. c #F2A61C",
"0. c #C68D26",
"q. c #C79227",
"w. c #DC9D27",
"e. c #CA9E3E",
"r. c #CE9338",
"t. c #E49E23",
"y. c #E79A27",
"u. c #F1942C",
"i. c #F29B2D",
"p. c #F89927",
"a. c #F39F33",
"s. c #DBA729",
"d. c #D8A532",
"f. c #D9B43F",
"g. c #E4A322",
"h. c #E9A32C",
"j. c #E8A628",
"k. c #F3A322",
"l. c #F9A92B",
"z. c #EDA531",
"x. c #E6AA31",
"c. c #E8A33B",
"v. c #F5A533",
"b. c #F1B430",
"n. c #969849",
"m. c #939052",
"M. c #8C8E4B",
"N. c #A99949",
"B. c #B39F45",
"V. c #B1BC5E",
"C. c #ACB460",
"Z. c #B6B565",
"A. c #C49F47",
"S. c #CAA749",
"D. c #D1AC4D",
"F. c #DBB64C",
"G. c #CFAD50",
"H. c #D8B457",
"J. c #D3AC57",
"K. c #E8A947",
"L. c #F0A951",
"P. c #E6BF55",
"I. c #E9B758",
"U. c #F0BE5F",
"Y. c #EAB050",
"T. c #C2BA73",
"R. c #E8BF6D",
"E. c #F0BD6A",
"W. c #E6C357",
"Q. c #ECC851",
"!. c #C1C66C",
"~. c #DCCD68",
"^. c #C9C672",
"/. c #CACD74",
"(. c #D5D379",
"). c #CFD678",
"_. c #E5C36C",
"`. c #E7CC6E",
"'. c #EAC266",
"]. c #FDC762",
"[. c #F4C366",
"{. c #F5D363",
"}. c #EBC77B",
"|. c #E9DC7A",
" X c #F3EA7F",
".X c #CFD382",
"XX c #DBDD83",
"oX c #D6D88C",
"OX c #DDDC91",
"+X c #E5D888",
"@X c #D9E58B",
"#X c #DFF280",
"$X c #DBE89D",
"%X c #DCF397",
"&X c #EBE28C",
"*X c #EBEB8B",
"=X c #E5E988",
"-X c #F8EA88",
";X c #E6F28F",
":X c #EFF08E",
">X c #ECE495",
",X c #EBEC94",
"<X c #EBE49B",
"1X c #E4EC9B",
"2X c #EAEC9B",
"3X c #E2E897",
"4X c #F4ED9D",
"5X c #F3E798",
"6X c #E4F494",
"7X c #ECF193",
"8X c #E9F29B",
"9X c #E7F59A",
"0X c #FCFD9D",
"qX c #F6F398",
"wX c #FCF088",
"eX c #DEDCA4",
"rX c #D6EDA7",
"tX c #DAF6B4",
"yX c #DBF1A7",
"uX c #E5EDA2",
"iX c #E7EBA7",
"pX c #F8EBA7",
"aX c #ECF3A2",
"sX c #EBF8A6",
"dX c #F3F2A5",
"fX c #FEFDA3",
"gX c #F8F9A8",
"hX c #F6E7B6",
"jX c None",
/* pixels */
"jXjXjXjXjXjXjXjXjXjXjXjXjXjXjXjXjXjXjXjXjXjXjXjXjXjXjXjXjXjX",
"a a a s s s jXjXjXjXjXjXjXjXjXjXjXjXjXjXjXjXjX>X>X[ < 9 4 4 ",
"r.$.%.q.) i jXjXjXjXjXjXjXjXjXjXjXjXjXjXjXjXjX,X0Xo.N ] m.M.",
"K.9.k.l.q.t jXjXjX8 i t e y y y 4 4 2 1 jXjXjXyX7Xh.-.P.aXiX",
"` (  . .H t jXjXjXL F E E D C D [ M.{ n.M.jXjXtX7Xz.+.F.*X3X",
"< = & > i a x b v d.g.1.g.y.1.x.@XrX3X,XC.  R 8XwXo.0 B v m ",
"S V Z A N i j p V 8.p.2.h.x.1.h.-X4XpXgXV.X } 7X-X[ + < o . ",
"s.8.3.a. .5 C &.0.y.p.J F F D H K.L.`.;XoX^..XiXiXD.^ A.^.!.",
"x.9.k.v...2 _ l.c.u.a.F * w @ 3 U Y W.qXdXqXdXrXuXU.:.].fX0X",
"F ! F P S r ` k.1.3.h.Q r B Q | f.Q._.+X|.>X3X3X-XG.O.D.(.).",
"> $ $ # 2 6 ` i.u.7.g.` 3 ! g.h.&XsXR.*.`.1X>X5X X{ ; 6 6 3 ",
") ( ( ) B w ` l.u.&.g.J - Q 3.k.@XtXE.T }.6X>X<X;X{ , k n u ",
"j.k.k.l...= ~ 9.t.3.2.H @ F >.;.|.sX[.<.}.;X&X3X%XF.O.G.XXXX",
"..%.0.q.] w _ p.1.3.y.` g | K.K.+XsX'.*.(.6X>X<X%XP.;.W.,X:X",
"3 = * 1 w 9  .a.u.t.5.w.<.F.=X2X1XiX_.U _.8X<X5X:XN.q M m m ",
"Z V Z A f 5 ` c.w.y.w.8.3.Y.*X7X*X2XE.=.`.6X>X5X:X{ O 3 > ; ",
"s.s.y.v. .w B W ) u.p.5.1.c.I.K.Y.P.W.{.@X9X>X,X6XD.I A.^.!.",
"d.8.9.v...r a 7 N 7.9.i.k.:.+.*.,.=.`.sXaXhX8X#X,XE.,.].0X0X",
"L D C F v d z jXS / %.0.^ S.R.I.u.<.}.dX,XjX$X=X5XJ.I D.(./.",
"< % & * p f jXjXjXu d l : n.qXwXb.;.{.gXjXjXjXuXpXn.# 2 ; ; ",
"| K K ( Z d jXjXjXl h h % { 7X5Xf.@.Q.4XjXjXjXiX4XN.0 z n x ",
"c.l.l.b.%.a jXjXjXjXjXjXjXjXhXeXjXjXjXjXjXjXjXuXqXR.+.J.+XXX",
"d.w.s.s.' y jXjXjXjXjXjXjXjX,XXXjXjXjXjXjXjXjX%X9X'.6.].gXgX",
"N N c c j n jXjXjXjXjXjXjXjX*XOXjXjXjXjXjXjXjXrXgXG.~ B.T.Z.",
"c p a s s [ jXjXjXjXjXjXjXjX,XOXjXjXjXjXjXjXjX$XuXX.3 7 4 d ",
"jXjXjXjXjXjXjXjXjXjXjXjXjXjX,XOXjXjXjXjXjXjXjXjXjXjXjXjXjXjX",
"jXjXjXjXjXjXjXjXjXjXjXjXjXjX,XOXjXjXjXjXjXjXjXjXjXjXjXjXjXjX",
"jXjXjXjXjXjXjXjXjXjXjXjXjXjX,XOXjXjXjXjXjXjXjXjXjXjXjXjXjXjX",
"jXjXjXjXjXjXjXjXjXjXjXjXjXjX,XOXjXjXjXjXjXjXjXjXjXjXjXjXjXjX",
"jXjXjXjXjXjXjXjXjXjXjXjXjXjX=XoXjXjXjXjXjXjXjXjXjXjXjXjXjXjX"
};
