/* XPM */
static char *result[] = {
/* columns rows colors chars-per-pixel */
"30 30 236 2 ",
"   c #191E00",
".  c #333100",
"X  c #273100",
"o  c #4E3F00",
"O  c #3E4D00",
"+  c #365900",
"@  c #1E6100",
"#  c #266600",
"$  c #444A00",
"%  c #4B4B00",
"&  c #484500",
"*  c #544F00",
"=  c #495400",
"-  c #475D02",
";  c #4F5C00",
":  c #535300",
">  c #5B5600",
",  c #545B00",
"<  c #5C5C00",
"1  c #5A5111",
"2  c #635901",
"3  c #6B5B01",
"4  c #685403",
"5  c #765A02",
"6  c #6C5B18",
"7  c #4D6301",
"8  c #496704",
"9  c #556302",
"0  c #5D6300",
"q  c #596B01",
"w  c #596A03",
"e  c #5F6B0F",
"r  c #656301",
"t  c #6B6601",
"y  c #646C03",
"u  c #6A6A04",
"i  c #6B6B0C",
"p  c #66670A",
"a  c #726402",
"s  c #776A08",
"d  c #6C7102",
"f  c #6A7503",
"g  c #757103",
"h  c #75750B",
"j  c #666617",
"k  c #7E6918",
"l  c #6B7418",
"z  c #757013",
"x  c #7C7414",
"c  c #7A7A16",
"v  c #5C6B23",
"b  c #676C23",
"n  c #6F7427",
"m  c #666443",
"M  c #805000",
"N  c #856300",
"B  c #836908",
"V  c #846D18",
"C  c #8D7516",
"Z  c #977917",
"A  c #907A06",
"S  c #B77C0D",
"D  c #AB7C19",
"F  c #B7781D",
"G  c #AA7300",
"H  c #827521",
"J  c #D27905",
"K  c #E37C00",
"L  c #F57D00",
"P  c #7D832E",
"I  c #7B8045",
"U  c #8D8110",
"Y  c #998716",
"T  c #8E8710",
"R  c #AD8809",
"E  c #A88618",
"W  c #B58716",
"Q  c #B99A1A",
"!  c #B88600",
"~  c #848229",
"^  c #9D8522",
"/  c #978D39",
"(  c #8E9038",
")  c #AE8524",
"_  c #B78826",
"`  c #AE9725",
"'  c #BD9728",
"]  c #A59636",
"[  c #BB8F34",
"{  c #DB8801",
"}  c #D69300",
"|  c #DC9100",
" . c #D38B1C",
".. c #C1921C",
"X. c #C9961B",
"o. c #D29419",
"O. c #DA971D",
"+. c #CC940E",
"@. c #E98D02",
"#. c #E59B00",
"$. c #EC970C",
"%. c #F99603",
"&. c #E49A1E",
"*. c #EB9A18",
"=. c #F5941B",
"-. c #FA9815",
";. c #E0831E",
":. c #D8A305",
">. c #DDBD00",
",. c #D6A61C",
"<. c #CDAC16",
"1. c #F6AA08",
"2. c #E7A41A",
"3. c #F5A71A",
"4. c #E2A300",
"5. c #D98C25",
"6. c #CC9A24",
"7. c #DC9E25",
"8. c #D79527",
"9. c #C79D37",
"0. c #D89A35",
"q. c #C18F25",
"w. c #E38925",
"e. c #EC9525",
"r. c #E49C26",
"t. c #ED9C22",
"y. c #EC9B2C",
"u. c #E7972B",
"i. c #FD9C22",
"p. c #FA9D2A",
"a. c #F69C21",
"s. c #F78931",
"d. c #E49935",
"f. c #F99B32",
"g. c #FB8D24",
"h. c #DDA32C",
"j. c #DFAF24",
"k. c #D9A538",
"l. c #D8B432",
"z. c #E5A123",
"x. c #EBA723",
"c. c #F5A322",
"v. c #F9A325",
"b. c #F4A62B",
"n. c #F8AA27",
"m. c #EBB42B",
"M. c #EBAB32",
"N. c #E9A537",
"B. c #F9A835",
"V. c #EAB631",
"C. c #E8CD35",
"Z. c #8D9848",
"A. c #918B4A",
"S. c #A69845",
"D. c #A8A859",
"F. c #ADB04F",
"G. c #ADAE66",
"H. c #C89A4A",
"J. c #E39950",
"K. c #CDA847",
"L. c #DFB552",
"P. c #D8AD49",
"I. c #E7A743",
"U. c #E6B64C",
"Y. c #F1B849",
"T. c #E8BB57",
"R. c #FAAF4B",
"E. c #F4BB64",
"W. c #BDCB6F",
"Q. c #DEC659",
"!. c #E7C955",
"~. c #F8C458",
"^. c #EDC546",
"/. c #C7CA6B",
"(. c #DCC967",
"). c #D6D677",
"_. c #CFCD76",
"`. c #E7C567",
"'. c #F2C361",
"]. c #F6CA67",
"[. c #E1D260",
"{. c #E8C377",
"}. c #E0DC7F",
"|. c #F3DB79",
" X c #F5CA74",
".X c #DEF073",
"XX c #F3E778",
"oX c #EAE079",
"OX c #BAD681",
"+X c #DCD985",
"@X c #DDDB93",
"#X c #CCCE86",
"$X c #E9DB88",
"%X c #F2DD94",
"&X c #EACB80",
"*X c #DEE583",
"=X c #DEEB9E",
"-X c #DCE695",
";X c #DCFD9F",
":X c #D8F98F",
">X c #EBEB8C",
",X c #E6E889",
"<X c #F8EA87",
"1X c #F8F488",
"2X c #ECE293",
"3X c #EBEC91",
"4X c #E4E59D",
"5X c #E9E59D",
"6X c #E2EA9B",
"7X c #F1E19B",
"8X c #F5E996",
"9X c #E4F493",
"0X c #EBF59A",
"qX c #E4F99A",
"wX c #EAFA98",
"eX c #F9FC9D",
"rX c #F7F697",
"tX c #EADBB6",
"yX c #DCE5AB",
"uX c #DBF7A6",
"iX c #D7EDBB",
"pX c #EBEBA5",
"aX c #E1EEAA",
"sX c #FDEDA7",
"dX c #ECF5A6",
"fX c #EAF8A9",
"gX c #FCF5A5",
"hX c #FDFEA5",
"jX c #FFFDAB",
"kX c #F2F2A8",
"lX c #F3EFB1",
"zX c #E9FFB6",
"xX c #F9F8B1",
"cX c #D9FFC4",
"vX c #F6F3C4",
"bX c None",
/* pixels */
"bXbXbXbXbXbXbXbXbXbXbXbXbXbX@X3XbXbXbXbXbXbXbXbXbXbXbXbXbXbX",
"vXhX^.N.p.@.O.bXbXbXbXbXbXbX@X3XbXbXbXbXbXbXbXbXn Y m.n.p.I.",
"#X).k.5.u.R.L.bXbXbXbXbXbXbX@X3XbXbXbXbXbXbXbXbXv Y 8.5.8.X.",
"; : j O Z.zXuXbXbXbXbXbXbXbX$X>XbXbXbXbXbXbXbXbXr p 7 7 9 8 ",
"$ & , % / gXyXbXbXbXbXbXbXbX-XpXbXbXbXbXbXbXbXbXd r : > < 4 ",
"D.D.] A F.rX6XbXbXbXbXbXbXbXtXlXbXbXbXbXbXbXbXbXt U E E ) F ",
"eXjX'.:.T.8XpXbXbXbXrXC.} l.<XXXT 9 g g j bXbXbX2 Q V.M.M.N.",
"0XhXE.#.E.7X4XbXbXbXgX!.} M.1XhXA.& j 3 1 bXbXbX2 ' m.3.v.P.",
"F.D.[ G H.gX*XbXbX,XlX{.w.f.T.{.9.R W W Q bXbXbXi A R S S ^ ",
"& % - + A.kX.X6XtX3XfX(.@.%.X.} 1.3.f.1.>.k j i a p , ; 9 < ",
"0 2 e > Z.0X,X>XpX=X<XQ.o.=.d.0.y.t.u.a.x.s 3 d i t t t i p ",
"/.).K.{ K.9X5X2X:X).#.'.$X X].|.I.@.,.e.s.' 6.Y # ^ 8.o.X.[ ",
"eXhX~.$.T.>X8X2XfXE.K E.dX,XqXwXY.g.z.,.u.y.B._ % q.B.n.x.M.",
"*X,XU.{ U.3X7X2XqX`.{ `.uX4X2X>XP.w.7.,.z.e.p._ * ) y.r.j.6.",
"h n k M ] qX5X2X=X).{ `.fX>Xd.N.Z 4 D n.*.e.v.W 7 g B B g B ",
"% & - o ( qX6X,XqX{.K '.dXoX| y.C @ D -.-.7.n.R + q < 9 7 2 ",
"~ ( ~ N S.qX6X>X9X XL E.fX*X:.=.Z # D c.*.u.v.E 8 h C C C C ",
"gXjX~.#.~.XX7X%XaX).K '.cX4X-.3.U - F j.<.s.f.W O ' B.n.n.V.",
",XrXT.} U.XX6X5X5X[.[ E.1X|.8.k.U > E x.$.=.b.E = ` m.*.x.h.",
"f c k 2 ] 1X6X6X$X|.pX`.4.,.h z g q U b.=.&.b.W < u g s B B ",
"% % , % ( fXyXkXjXkXwX!.K w.> - 0 - Z f.y.N.n.W 9 e > , , 2 ",
"P H H 5 S.kXaX-X).-X9X[.u.d.B z V k F p.e.9.z.D , z V x x V ",
",X3XT.o.U.8X0Xh   F.rX%X8X|.7.r.h.h.=.-.2.N 5 g < [ N.t.,.h.",
"eXhX~.$.Y.<XrX~ . G.xXsXzX0X3.i.b.b.3.3.m.i j i 0 q.B.3.1.M.",
"/.).K.! l.1XqXm . G.}._.OXW... .q.Q ..6.9.b m b q E 5. .X.q.",
", 2 0 : ( wXiXbXbXbX9 q 2 2 r a t q t a 6 bXbXbXy u 5 p w p ",
": < p $ Z.wX=XbXbXbXj i l i y i y f y i b bXbXbXd a 2 0 q p ",
"G.F.` D H.~.(.bXbXbXbXbXbXbXbXbXbXbXbXbXbXbXbXbXr Z _ ) E E ",
"pXeX^.&.-.%.0.bXbXbXbXbXbXbXbXbXbXbXbXbXbXbXbXbX< ..b.2.3.N.",
"yXpXT.O.-.-.k.bXbXbXbXbXbXbXbXbXbXbXbXbXbXbXbXbX0 _ N.&.&.J."
};
