/* XPM */
static char *result[] = {
/* columns rows colors chars-per-pixel */
"30 30 236 2 ",
"   c #191E00",
".  c #333100",
"X  c #273100",
"o  c #4E3F00",
"O  c #3E4D00",
"+  c #365900",
"@  c #1E6100",
"#  c #266600",
"$  c #444A00",
"%  c #4B4B00",
"&  c #484500",
"*  c #544F00",
"=  c #495400",
"-  c #475D02",
";  c #4F5C00",
":  c #535300",
">  c #5B5600",
",  c #545B00",
"<  c #5C5C00",
"1  c #5A5111",
"2  c #635901",
"3  c #6B5B01",
"4  c #685403",
"5  c #765A02",
"6  c #6C5B18",
"7  c #4D6301",
"8  c #496704",
"9  c #556302",
"0  c #5D6300",
"q  c #596B01",
"w  c #596A03",
"e  c #5F6B0F",
"r  c #656301",
"t  c #6B6601",
"y  c #646C03",
"u  c #6A6A04",
"i  c #6B6B0C",
"p  c #66670A",
"a  c #726402",
"s  c #776A08",
"d  c #6C7102",
"f  c #6A7503",
"g  c #757103",
"h  c #75750B",
"j  c #666617",
"k  c #7E6918",
"l  c #6B7418",
"z  c #757013",
"x  c #7C7414",
"c  c #7A7A16",
"v  c #5C6B23",
"b  c #676C23",
"n  c #6F7427",
"m  c #666443",
"M  c #805000",
"N  c #856300",
"B  c #836908",
"V  c #846D18",
"C  c #8D7516",
"Z  c #977917",
"A  c #907A06",
"S  c #B77C0D",
"D  c #AB7C19",
"F  c #B7781D",
"G  c #AA7300",
"H  c #827521",
"J  c #D27905",
"K  c #E37C00",
"L  c #F57D00",
"P  c #7D832E",
"I  c #7B8045",
"U  c #8D8110",
"Y  c #998716",
"T  c #8E8710",
"R  c #AD8809",
"E  c #A88618",
"W  c #B58716",
"Q  c #B99A1A",
"!  c #B88600",
"~  c #848229",
"^  c #9D8522",
"/  c #978D39",
"(  c #8E9038",
")  c #AE8524",
"_  c #B78826",
"`  c #AE9725",
"'  c #BD9728",
"]  c #A59636",
"[  c #BB8F34",
"{  c #DB8801",
"}  c #D69300",
"|  c #DC9100",
" . c #D38B1C",
".. c #C1921C",
"X. c #C9961B",
"o. c #D29419",
"O. c #DA971D",
"+. c #CC940E",
"@. c #E98D02",
"#. c #E59B00",
"$. c #EC970C",
"%. c #F99603",
"&. c #E49A1E",
"*. c #EB9A18",
"=. c #F5941B",
"-. c #FA9815",
";. c #E0831E",
":. c #D8A305",
">. c #DDBD00",
",. c #D6A61C",
"<. c #CDAC16",
"1. c #F6AA08",
"2. c #E7A41A",
"3. c #F5A71A",
"4. c #E2A300",
"5. c #D98C25",
"6. c #CC9A24",
"7. c #DC9E25",
"8. c #D79527",
"9. c #C79D37",
"0. c #D89A35",
"q. c #C18F25",
"w. c #E38925",
"e. c #EC9525",
"r. c #E49C26",
"t. c #ED9C22",
"y. c #EC9B2C",
"u. c #E7972B",
"i. c #FD9C22",
"p. c #FA9D2A",
"a. c #F69C21",
"s. c #F78931",
"d. c #E49935",
"f. c #F99B32",
"g. c #FB8D24",
"h. c #DDA32C",
"j. c #DFAF24",
"k. c #D9A538",
"l. c #D8B432",
"z. c #E5A123",
"x. c #EBA723",
"c. c #F5A322",
"v. c #F9A325",
"b. c #F4A62B",
"n. c #F8AA27",
"m. c #EBB42B",
"M. c #EBAB32",
"N. c #E9A537",
"B. c #F9A835",
"V. c #EAB631",
"C. c #E8CD35",
"Z. c #8D9848",
"A. c #918B4A",
"S. c #A69845",
"D. c #A8A859",
"F. c #ADB04F",
"G. c #ADAE66",
"H. c #C89A4A",
"J. c #E39950",
"K. c #CDA847",
"L. c #DFB552",
"P. c #D8AD49",
"I. c #E7A743",
"U. c #E6B64C",
"Y. c #F1B849",
"T. c #E8BB57",
"R. c #FAAF4B",
"E. c #F4BB64",
"W. c #BDCB6F",
"Q. c #DEC659",
"!. c #E7C955",
"~. c #F8C458",
"^. c #EDC546",
"/. c #C7CA6B",
"(. c #DCC967",
"). c #D6D677",
"_. c #CFCD76",
"`. c #E7C567",
"'. c #F2C361",
"]. c #F6CA67",
"[. c #E1D260",
"{. c #E8C377",
"}. c #E0DC7F",
"|. c #F3DB79",
" X c #F5CA74",
".X c #DEF073",
"XX c #F3E778",
"oX c #EAE079",
"OX c #BAD681",
"+X c #DCD985",
"@X c #DDDB93",
"#X c #CCCE86",
"$X c #E9DB88",
"%X c #F2DD94",
"&X c #EACB80",
"*X c #DEE583",
"=X c #DEEB9E",
"-X c #DCE695",
";X c #DCFD9F",
":X c #D8F98F",
">X c #EBEB8C",
",X c #E6E889",
"<X c #F8EA87",
"1X c #F8F488",
"2X c #ECE293",
"3X c #EBEC91",
"4X c #E4E59D",
"5X c #E9E59D",
"6X c #E2EA9B",
"7X c #F1E19B",
"8X c #F5E996",
"9X c #E4F493",
"0X c #EBF59A",
"qX c #E4F99A",
"wX c #EAFA98",
"eX c #F9FC9D",
"rX c #F7F697",
"tX c #EADBB6",
"yX c #DCE5AB",
"uX c #DBF7A6",
"iX c #D7EDBB",
"pX c #EBEBA5",
"aX c #E1EEAA",
"sX c #FDEDA7",
"dX c #ECF5A6",
"fX c #EAF8A9",
"gX c #FCF5A5",
"hX c #FDFEA5",
"jX c #FFFDAB",
"kX c #F2F2A8",
"lX c #F3EFB1",
"zX c #E9FFB6",
"xX c #F9F8B1",
"cX c #D9FFC4",
"vX c #F6F3C4",
"bX c None",
/* pixels */
"J.&.&.M._ 0 bXbXbXbXbXbXbXbXbXbXbXbXbXbXbXbXbXk.-.-.7.L.0XyX",
"N.3.2.b...2 bXbXbXbXbXbXbXbXbXbXbXbXbXbXbXbXbX0.%.-.t.^.rXpX",
"E E ) _ Z r bXbXbXbXbXbXbXbXbXbXbXbXbXbXbXbXbX(.].H.D ` F.G.",
"p q 2 4 t f bXbXbXb i f y u p y i i i b bXbXbX=XwXZ.$ p < , ",
"p w p 5 a y bXbXbX6 a y q t a t 3 2 w , bXbXbXiXwX( > 0 2 , ",
"' X. .5.E w v m b 9.o.q.' q. ...W.W._.+XD.. I 6X1Xl.! K._./.",
"M.1.-.B.q.9 l j s V.3.-.b.b.-.n.0XzXxXjXG.X P wXXXY.$.~.hXeX",
"h.,.z.I.[ , g 5 s *.-.*.h.h.r.h.|.8X%XeXF.  c wX8XU.o.T.8X,X",
"V c x V z < R r.0.e.p.F s x z B d.y.`.9X-X).2XyXkXS.3 c n P ",
"4 9 , > p , W B.h.y.R.Z = 0 - < ;.K !.wXkXgXfXyXkXA.% , % % ",
"B s s g d , W x.&.=.z.U y g z i ,.4.`.7X<X$XpX-XrX] 2 k V f ",
"z.2.2.x.` = W b.=.*.x.E : T k.0.oXrXE._ !.5X5X,X<XV.} T.rX>X",
"M.n.n.B.' O Q f.s.<.j.F = U v.-.5XcX`.K ).=X%X7X,X~.1.!.jXhX",
"C C C Z h + E n.u.*.a.D # Z 3.:.*XuX~.L  X9X>X4X;X] N ~ ( ~ ",
"2 9 9 < w 8 R 3.7.-.i.D @ Z e.#.|.fX'.K &X0X,X5X;XZ.o ; % % ",
"B h B B h ; W v.w.*.3.D 4 Z I.d.$XfX`.{ ).9X%X5XqX] M V n h ",
"6.h.r.y.) : _ p.e.z.,.7.5.P.>X%X6XaX`.{ `.6X7X7X>XU.| U.,X+X",
"V.2.a.B.[ $ _ B.d.r.,.z.g.Y.0X0X>XdXE.J  X0X2X7X>XY.$.~.hXeX",
"[ X.o.8.^ + Y 6.6.s.t.,.@.I.|.].].$X'.#.).:X2X5X9XK.J K.)./.",
"p u u t y d d r s c.=.u.t.y.0.d.*.o.Q.1X=X4X>X9XwXZ.: p 2 0 ",
"0 9 ; < t a i j k >.1.b.3.#.} O.%.@.(.fX3XtX5X.XkXA.O 8 % $ ",
"^ S S R A i bXbXbXQ W _ R 9.{.T.f.w.{.lX*XbXbX*XsXH.G [ D.F.",
"k.v.a.m.Q 6 bXbXbX1 5 j $ A.jX1XN.| !.sXbXbXbX6XsXE.#.'.hXrX",
"I.B.M.V.Q 2 bXbXbXl g f 9 T XX2Xl.} C.rXbXbXbXaX8XT.:.'.xXeX",
"D ) ^ E U t bXbXbXbXbXbXbXbXxXyXbXbXbXbXbXbXbX4XrXS.A ] D.D.",
"4 2 < : t u bXbXbXbXbXbXbXbXpX2XbXbXbXbXbXbXbXuXgX/ % , & $ ",
"w 8 8 8 y y bXbXbXbXbXbXbXbX>X+XbXbXbXbXbXbXbXuXzXZ.$ j > , ",
"6.w.5.8.Y v bXbXbXbXbXbXbXbX3X@XbXbXbXbXbXbXbXL.R.u.5.K.).#X",
"I.p.a.m.E b bXbXbXbXbXbXbXbX3X@XbXbXbXbXbXbXbXO.@.p.N.^.hXvX",
"bXbXbXbXbXbXbXbXbXbXbXbXbXbX3X@XbXbXbXbXbXbXbXbXbXbXbXbXbXbX"
};
