/* XPM */
static char *result[] = {
/* columns rows colors chars-per-pixel */
"30 30 236 2 ",
"   c #191E00",
".  c #333100",
"X  c #273100",
"o  c #4E3F00",
"O  c #3E4D00",
"+  c #365900",
"@  c #1E6100",
"#  c #266600",
"$  c #444A00",
"%  c #4B4B00",
"&  c #484500",
"*  c #544F00",
"=  c #495400",
"-  c #475D02",
";  c #4F5C00",
":  c #535300",
">  c #5B5600",
",  c #545B00",
"<  c #5C5C00",
"1  c #5A5111",
"2  c #635901",
"3  c #6B5B01",
"4  c #685403",
"5  c #765A02",
"6  c #6C5B18",
"7  c #4D6301",
"8  c #496704",
"9  c #556302",
"0  c #5D6300",
"q  c #596B01",
"w  c #596A03",
"e  c #5F6B0F",
"r  c #656301",
"t  c #6B6601",
"y  c #646C03",
"u  c #6A6A04",
"i  c #6B6B0C",
"p  c #66670A",
"a  c #726402",
"s  c #776A08",
"d  c #6C7102",
"f  c #6A7503",
"g  c #757103",
"h  c #75750B",
"j  c #666617",
"k  c #7E6918",
"l  c #6B7418",
"z  c #757013",
"x  c #7C7414",
"c  c #7A7A16",
"v  c #5C6B23",
"b  c #676C23",
"n  c #6F7427",
"m  c #666443",
"M  c #805000",
"N  c #856300",
"B  c #836908",
"V  c #846D18",
"C  c #8D7516",
"Z  c #977917",
"A  c #907A06",
"S  c #B77C0D",
"D  c #AB7C19",
"F  c #B7781D",
"G  c #AA7300",
"H  c #827521",
"J  c #D27905",
"K  c #E37C00",
"L  c #F57D00",
"P  c #7D832E",
"I  c #7B8045",
"U  c #8D8110",
"Y  c #998716",
"T  c #8E8710",
"R  c #AD8809",
"E  c #A88618",
"W  c #B58716",
"Q  c #B99A1A",
"!  c #B88600",
"~  c #848229",
"^  c #9D8522",
"/  c #978D39",
"(  c #8E9038",
")  c #AE8524",
"_  c #B78826",
"`  c #AE9725",
"'  c #BD9728",
"]  c #A59636",
"[  c #BB8F34",
"{  c #DB8801",
"}  c #D69300",
"|  c #DC9100",
" . c #D38B1C",
".. c #C1921C",
"X. c #C9961B",
"o. c #D29419",
"O. c #DA971D",
"+. c #CC940E",
"@. c #E98D02",
"#. c #E59B00",
"$. c #EC970C",
"%. c #F99603",
"&. c #E49A1E",
"*. c #EB9A18",
"=. c #F5941B",
"-. c #FA9815",
";. c #E0831E",
":. c #D8A305",
">. c #DDBD00",
",. c #D6A61C",
"<. c #CDAC16",
"1. c #F6AA08",
"2. c #E7A41A",
"3. c #F5A71A",
"4. c #E2A300",
"5. c #D98C25",
"6. c #CC9A24",
"7. c #DC9E25",
"8. c #D79527",
"9. c #C79D37",
"0. c #D89A35",
"q. c #C18F25",
"w. c #E38925",
"e. c #EC9525",
"r. c #E49C26",
"t. c #ED9C22",
"y. c #EC9B2C",
"u. c #E7972B",
"i. c #FD9C22",
"p. c #FA9D2A",
"a. c #F69C21",
"s. c #F78931",
"d. c #E49935",
"f. c #F99B32",
"g. c #FB8D24",
"h. c #DDA32C",
"j. c #DFAF24",
"k. c #D9A538",
"l. c #D8B432",
"z. c #E5A123",
"x. c #EBA723",
"c. c #F5A322",
"v. c #F9A325",
"b. c #F4A62B",
"n. c #F8AA27",
"m. c #EBB42B",
"M. c #EBAB32",
"N. c #E9A537",
"B. c #F9A835",
"V. c #EAB631",
"C. c #E8CD35",
"Z. c #8D9848",
"A. c #918B4A",
"S. c #A69845",
"D. c #A8A859",
"F. c #ADB04F",
"G. c #ADAE66",
"H. c #C89A4A",
"J. c #E39950",
"K. c #CDA847",
"L. c #DFB552",
"P. c #D8AD49",
"I. c #E7A743",
"U. c #E6B64C",
"Y. c #F1B849",
"T. c #E8BB57",
"R. c #FAAF4B",
"E. c #F4BB64",
"W. c #BDCB6F",
"Q. c #DEC659",
"!. c #E7C955",
"~. c #F8C458",
"^. c #EDC546",
"/. c #C7CA6B",
"(. c #DCC967",
"). c #D6D677",
"_. c #CFCD76",
"`. c #E7C567",
"'. c #F2C361",
"]. c #F6CA67",
"[. c #E1D260",
"{. c #E8C377",
"}. c #E0DC7F",
"|. c #F3DB79",
" X c #F5CA74",
".X c #DEF073",
"XX c #F3E778",
"oX c #EAE079",
"OX c #BAD681",
"+X c #DCD985",
"@X c #DDDB93",
"#X c #CCCE86",
"$X c #E9DB88",
"%X c #F2DD94",
"&X c #EACB80",
"*X c #DEE583",
"=X c #DEEB9E",
"-X c #DCE695",
";X c #DCFD9F",
":X c #D8F98F",
">X c #EBEB8C",
",X c #E6E889",
"<X c #F8EA87",
"1X c #F8F488",
"2X c #ECE293",
"3X c #EBEC91",
"4X c #E4E59D",
"5X c #E9E59D",
"6X c #E2EA9B",
"7X c #F1E19B",
"8X c #F5E996",
"9X c #E4F493",
"0X c #EBF59A",
"qX c #E4F99A",
"wX c #EAFA98",
"eX c #F9FC9D",
"rX c #F7F697",
"tX c #EADBB6",
"yX c #DCE5AB",
"uX c #DBF7A6",
"iX c #D7EDBB",
"pX c #EBEBA5",
"aX c #E1EEAA",
"sX c #FDEDA7",
"dX c #ECF5A6",
"fX c #EAF8A9",
"gX c #FCF5A5",
"hX c #FDFEA5",
"jX c #FFFDAB",
"kX c #F2F2A8",
"lX c #F3EFB1",
"zX c #E9FFB6",
"xX c #F9F8B1",
"cX c #D9FFC4",
"vX c #F6F3C4",
"bX c None",
/* pixels */
"yXpXG.: , /.eX.XP % u >XgXP $ h +XeX/.r $ F.rXhXD.O = #XvXbX",
"pXrXF.< < _.hX8XH & c 0XjX( % n ,XhX).0 % D.jXjXD.& : ).hXbX",
"L.^.` u r K.E.T.H , V T.~.~ 7 x L.~.K.y 7 [ E.'./ : j P.^.bX",
"O.r.D % < ! $.o.a % 4 } 1.M o M { $.J 2 + G #.} A % O 5.N.bX",
"=.-.9.Z.( l.Y.U.S.( ] U.~.S.( ] U.T.P.( A.H.E.T.F./ Z.d.p.bX",
"-.%.].wXwX1XXX<XlXfX1XXXXX;X;XqX>X>X9XqXkX8XsXsXrXrXzXR.@.bX",
"k.k.(.=XiX6XrX9XaXyX-X2XpX2X6X5X7X7X5X9X.X,X6X5X4X6XuXL.O.bX",
"bXbXbXbXbXI P P *XkX4X5X%X,X>X2X%X2X2X>X6XbXbXbXbXbXbXbXbXbX",
"bXbXbXbXbX. X   $XgX$X8XuX3X9X9XwXdX:X=XtXbXbXbXbXbXbXbXbXbX",
"bXbXbXbXbXD.G.D.-XdX$X[.). X&X).{.E.).=X3X,XbXbXbXbXbXbXbXbX",
"bXbXbXj q +XjXrX9XwX8X_ K L K { { J #.1XfXlXgXrXbXbXbXbXbXbX",
"bXbXbXi 9 _.sX%X[.Q.E.{.`.~.'.`.E.`.'.Q.(.{.!.C.bXbXbXbXbXbX",
"bXbXbXl 2 OXzX8Xy.K 4.1XcXuXdXfXaXdX$Xo.@.5.} +.bXbXbXbXbXbX",
"bXbXbXi 4 W.wX|.d.5.:.XX5X,X|.$X6X3X].*.%.f.M.j.bXbXbXbXbXbX",
"bXbXbXy t ..c.8.B 4 i 0.-.:.| d.2XqX].d.o.T.1X<XtX@X+X@X-X@X",
"bXbXbXp a  .i.7.z - z h.v.c.z.I.,XrX|.0.} {.jXXXlXkX>X3X3X3X",
"bXbXbXu t q.b.h.x 0 g U U Z Z Z P.Y.I.y.1.9.A.T bXbXbXbXbXbX",
"bXbXbXq q Q x.N.k - q : ; # @ 4 w.g.@.*.c.R $ 7 bXbXbXbXbXbX",
"bXbXbXf r ..3.=.F Z Y Y F D D D 7.z.,.u.b.' 6 f bXbXbXbXbXbX",
"bXbXbXi a 6.3.-.p.f.M.z.j.c.-.v.,.,.e.a.1.W 3 g bXbXbXbXbXbX",
"bXbXbXn 6 9.V.*.e.y.=.$.<.$.=.*.z.u.s.t.>.Q 1 j bXbXbXbXbXbX",
"bXbXbXbXbXb s N k.d.&.=.s.u.7.r.e.r.' s k bXbXbXbXbXbXbXbXbX",
"bXbXbXbXbXm j 5 r.n.x.b.f.v.n.i.f.B.,.3 j bXbXbXbXbXbXbXbXbX",
"bXbXbXbXbXj l d E W W E W W R W W _ Y u i bXbXbXbXbXbXbXbXbX",
"0 2 r u y q q , < 9 , $ O + 8 8 : $ + f a i 6 2 t d y v n bX",
"_ Q Z t t ) ' _ z e f ` ' h q h _ [ ^ y r A Q Q A r y Z Y bX",
"N.b._ 3 5 5.B.N.V < g x.B.Z 2 B N.B.6.a , W m.V.) > 8 8.n.bX",
"&.*.) r p  .-.z.x , B 2.v.C 9 B &.c. .u , S 3.M.^ > 8 5.c.bX",
"&.3.E q q X.1.2.c 9 N 2.n.C 8 h ,.2.X.i 9 W v.B.E > q 5.p.bX",
"J.N.E r p ' M.k.V 4 s h.M.Z 2 B 6.M.[ i 2 Y k.I.D 4 8 6.I.bX"
};
