/* XPM */
static char *result[] = {
/* columns rows colors chars-per-pixel */
"30 30 106 2 ",
"   c #450000",
".  c #5C0001",
"X  c #640000",
"o  c #631D1A",
"O  c #601B22",
"+  c #5B342B",
"@  c #5F3533",
"#  c #632322",
"$  c #672C27",
"%  c #602D2A",
"&  c #6C2C2C",
"*  c #603330",
"=  c #693339",
"-  c #653A39",
";  c #733837",
":  c #5E443D",
">  c #5C493D",
",  c #5F503E",
"<  c #6C453F",
"1  c #7A433C",
"2  c #595C4E",
"3  c #59495A",
"4  c #565555",
"5  c #595555",
"6  c #535B54",
"7  c #5A5B53",
"8  c #575758",
"9  c #5D565E",
"0  c #54595C",
"q  c #5C5C5C",
"w  c #6A4444",
"e  c #63444F",
"r  c #6F474B",
"t  c #664B4B",
"y  c #744847",
"u  c #71494F",
"i  c #794B49",
"p  c #605341",
"a  c #6D5146",
"s  c #63574D",
"d  c #695A4E",
"f  c #725049",
"g  c #614C54",
"h  c #714D52",
"j  c #6C5453",
"k  c #645D55",
"l  c #6A5A57",
"z  c #625358",
"x  c #625F5E",
"c  c #6B5E5D",
"v  c #735555",
"b  c #7A5552",
"n  c #78575B",
"m  c #755B5B",
"M  c #4D605D",
"N  c #5D635D",
"B  c #576A5E",
"V  c #5B685D",
"C  c #666453",
"Z  c #6A6857",
"A  c #63625C",
"S  c #6A635D",
"D  c #676A5E",
"F  c #686A5B",
"G  c #73635C",
"H  c #5F5F62",
"J  c #5C5E6A",
"K  c #645E63",
"L  c #6B5E64",
"P  c #655F6B",
"I  c #695E69",
"U  c #725D62",
"Y  c #715F69",
"T  c #546363",
"R  c #5E6563",
"E  c #536C65",
"W  c #5B6A64",
"Q  c #5E6569",
"!  c #576C68",
"~  c #5E6968",
"^  c #58706D",
"/  c #536371",
"(  c #5F6170",
")  c #636464",
"_  c #6B6364",
"`  c #656A65",
"'  c #6C6963",
"]  c #63646A",
"[  c #68676C",
"{  c #64696B",
"}  c #6A6A6A",
"|  c #746264",
" . c #706E63",
".. c #72656B",
"X. c #706B6D",
"o. c #786B6E",
"O. c #6A7066",
"+. c #7B7169",
"@. c #646570",
"#. c #646874",
"$. c #696D72",
"%. c #726D70",
"&. c #617173",
"*. c #737373",
"=. c #727A77",
"-. c None",
/* pixels */
"z 0 7 -.-.-.-.-.-.-.-.-.-.-.-.-.-.-.-.-.-.-.-.-.-.-.q q q 4 ",
"..#.' H -.-.-.-.-.-.-.-.-.-.-.-.-.-.-.-.-.-.-.-.-.-.) ` %.` ",
"-.J _ ) q -.-.-.-.-.-.q 8 H q M -.-.-.-.-.-.-.-.-.x ) ) -.-.",
"-.-.R ` _ -.-.-.-.-.-.) *.[ _ +.-.-.-.-.-.-.-.-.) } [ ) -.-.",
"-.6 A ) R -.-.-.-.-.-.q q Q j 1 2 -.-.-.-.-.-.-.` ) _ ) -.-.",
"&.} c R ) [ ) -.-.-.-.-.-.{ r . , =.3 -.-.-.q } ) ) ) ) *.` ",
"( ] _ ) ) ) ) -.-.-.-.-.-.[ u X < q -.-.-.-.q } ) ) ` ) ) -.",
"-.-.) ) ) ) ) -.-.-.-.-.-.] _ G g -.-.-.-.-.q } ) K [ ) -.-.",
"-.4 C ) P Q ] -.-.-.-.-.-.] W { -.-.-.-.-.-.T [ K K ) x -.-.",
"..#.Z ` P ] { ' _ ' N -.-.) ` ` -.-.K $.W | ~ ] ) ` [ ` *.) ",
"K / q W V n m V W ) H -.-.q ] _ q -.) .._ R l b _ ) x R ) q ",
"-.-.-.-.D $ . 2 ~ Q ] L A R ) ) ) ) R ) L ! @ X c H -.-.-.-.",
"-.-.-.-.S # . f m ) ) Y _ ) ) ) ) ) R B L G & X c ) -.-.-.-.",
"-.-.l ) ) j i & # k T _ ) V ) ) ) ) ) V : o 1 v A q ) -.-.-.",
"-.-.o._ R ! G o . k W _ ` R ) R _ _ ) L + X a ^ ] ` *.` -.-.",
"-.-.-._ { ) _ e - A c ; > L ) R h = s ` t - j A ` K -.-.-.-.",
"-.-.-.-.` ) ) U S E c . X n B F -   < ` S G c V } q -.-.-.-.",
"-.-.-.-.) R ) ) L R c % + c W S w O y { R R ] ) } q -.-.-.-.",
"-.-.-.-.[ R R ) m P ) G D ) ] ) _ U _ L ) Q ) L X.) -.-.-.-.",
"-.-.-.-.A ) ) ) V ! R C x I P P R T R L K K K _ ) q -.-.-.-.",
"-.-.-.-.-.) %._ F } K -.-.) ` _ q -.) O.] [ [ ` -.-.-.-.-.-.",
"-.-.-.-.-.4 5 8 5 5 4 -.-.) ) _ -.-.-.7 4 8 7 6 -.-.-.-.-.-.",
"-.-.-.-.-.-.-.-.-.-.-.-.-.` _ [ -.-.-.-.-.-.-.-.-.-.-.-.-.-.",
"-.-.-.-.-.-.-.-.-.-.-.-.-.) ) ` -.-.-.-.-.-.-.-.-.-.-.-.-.-.",
"-.-.-.-.-.-.-.-.-.-.-.q q ) ) ) ) q -.-.-.-.-.-.-.-.-.-.-.-.",
"-.-.-.-.-.-.-.-.-.-.-.` [ ) ) ) ) } -.-.-.-.-.-.-.-.-.-.-.-.",
"-.-.-.-.-.-.-.4 H x q ) ) ) ) K ) ) N x ) q -.-.-.-.-.-.-.-.",
"-.-.-.-.-.-.-.q } ` } } } ) ) ) ` } [ } } } -.-.-.-.-.-.-.-.",
"-.-.-.-.-.-.-.q ) ) H 4 q H ) ) q 4 K ) ) ) -.-.-.-.-.-.-.-.",
"-.-.-.-.-.-.-.q _ ) ) -.-.) ` ` -.-.-.} ) ` -.-.-.-.-.-.-.-."
};
